<?xml version="1.0" encoding="iso-8859-1"?>
<!-- Generator: Adobe Illustrator 19.0.0, SVG Export Plug-In . SVG Version: 6.00 Build 0)  -->
<svg version="1.1" id="Layer_1" xmlns="http://www.w3.org/2000/svg" xmlns:xlink="http://www.w3.org/1999/xlink" x="0px" y="0px"
	 viewBox="0 0 512.001 512.001" style="enable-background:new 0 0 512.001 512.001;" xml:space="preserve">
<g>
	<rect x="221.085" y="70.022" style="fill:#BF260E;" width="69.833" height="76.81"/>
	<path style="fill:#BF260E;" d="M256.001,121.637V512c107.796,0,195.181-87.386,195.181-195.181S363.797,121.637,256.001,121.637z"
		/>
</g>
<path style="fill:#FF5B42;" d="M60.819,316.819C60.819,424.614,148.205,512,256.001,512V121.637
	C148.205,121.637,60.819,209.023,60.819,316.819z"/>
<ellipse style="fill:#FF3213;" cx="256.002" cy="316.82" rx="139.412" ry="195.181"/>
<g>
	<path style="fill:#F8E19E;" d="M329.09,407.161h-6.091v-6.091c0-4.587-3.719-8.306-8.306-8.306c-4.587,0-8.306,3.719-8.306,8.306
		v6.091h-6.091c-4.587,0-8.306,3.719-8.306,8.306c0,4.587,3.719,8.306,8.306,8.306h6.091v6.091c0,4.587,3.719,8.306,8.306,8.306
		c4.587,0,8.306-3.719,8.306-8.306v-6.091h6.091c4.587,0,8.306-3.719,8.306-8.306C337.395,410.88,333.677,407.161,329.09,407.161z"
		/>
	<path style="fill:#F8E19E;" d="M394.375,340.717h-4.93v-6.091c0-4.587-3.719-8.306-8.306-8.306c-4.587,0-8.306,3.719-8.306,8.306
		v6.091h-6.091c-4.587,0-8.306,3.719-8.306,8.306c0,4.587,3.719,8.306,8.306,8.306h6.091v6.091c0,4.587,3.719,8.306,8.306,8.306
		c4.587,0,8.306-3.719,8.306-8.306v-6.091h2.957l6.649-8.306L394.375,340.717z"/>
</g>
<path style="fill:#E8C67C;" d="M395.535,340.717h-1.161c-0.489,5.615-1.151,11.154-1.973,16.611h3.134
	c4.587,0,8.306-3.719,8.306-8.306C403.84,344.435,400.121,340.717,395.535,340.717z"/>
<path style="fill:#F8E19E;" d="M174.052,218.901h-6.091v-6.091c0-4.587-3.719-8.306-8.306-8.306s-8.306,3.719-8.306,8.306v6.091
	h-6.091c-4.587,0-8.306,3.719-8.306,8.306s3.719,8.306,8.306,8.306h6.091v6.091c0,4.587,3.719,8.306,8.306,8.306
	s8.306-3.719,8.306-8.306v-6.091h6.091c4.587,0,8.306-3.719,8.306-8.306S178.639,218.901,174.052,218.901z"/>
<path style="fill:#D1964A;" d="M287.829,66.036h-16.611V31.827c0-8.39-6.826-15.216-15.216-15.216
	c-8.39,0-15.216,6.826-15.216,15.216v34.209h-16.611V31.827C224.175,14.277,238.452,0,256.002,0s31.827,14.278,31.827,31.827V66.036
	z"/>
<path style="fill:#E8C67C;" d="M210.352,49.093v34.163c3.444,5.809,8.969,9.601,15.214,9.601c6.245,0,11.77-3.792,15.219-9.601
	c3.444,5.809,8.969,9.601,15.214,9.601c6.245,0,11.78-3.792,15.219-9.601l11.074-17.081l-11.074-17.081h-60.866V49.093z"/>
<path style="fill:#D5AD56;" d="M271.218,49.093v34.163c3.444,5.809,8.963,9.601,15.214,9.601c6.246,0,11.77-3.792,15.219-9.601
	V49.093H271.218z"/>
<g>
	<polygon style="fill:#E8C67C;" points="214.033,295.953 233.366,342.449 283.561,346.467 245.315,379.222 257.004,428.202 
		214.033,401.95 171.062,428.202 182.751,379.222 144.505,346.467 194.7,342.449 	"/>
	<polygon style="fill:#E8C67C;" points="320.788,205.612 333.775,236.849 367.497,239.549 341.803,261.554 349.656,294.46 
		320.788,276.823 291.919,294.46 299.772,261.554 274.078,239.549 307.799,236.849 	"/>
</g>
<g>
</g>
<g>
</g>
<g>
</g>
<g>
</g>
<g>
</g>
<g>
</g>
<g>
</g>
<g>
</g>
<g>
</g>
<g>
</g>
<g>
</g>
<g>
</g>
<g>
</g>
<g>
</g>
<g>
</g>
</svg>
