<?xml version="1.0" encoding="iso-8859-1"?>
<!-- Generator: Adobe Illustrator 19.0.0, SVG Export Plug-In . SVG Version: 6.00 Build 0)  -->
<svg version="1.1" id="Capa_1" xmlns="http://www.w3.org/2000/svg" xmlns:xlink="http://www.w3.org/1999/xlink" x="0px" y="0px"
	 viewBox="0 0 511.998 511.998" style="enable-background:new 0 0 511.998 511.998;" xml:space="preserve">
<path style="fill:#EF3C3C;" d="M207.792,86.907l29.32,58.14c13.354,26.48,11.459,57.405-4.807,78.447l-23.17,29.975l-37.879,0.807
	c-26.591,0.567-52.585-16.296-65.938-42.776l-29.32-58.14"/>
<path style="fill:#F25353;" d="M217.645,247.828l-18.004-6.053c-21.191-7.125-35.924-26.415-37.219-48.734l0,0
	c-0.847-14.598-14.895-24.731-29.016-20.93l0,0c-19.99,5.382-41.309-0.908-55.177-16.279l28.815,58.871
	c0,0,12.324,25.822,42.793,34.026C180.306,256.934,217.645,247.828,217.645,247.828z"/>
<g>
	<path style="fill:#EF3C3C;" d="M217.645,247.828l-18.004-6.053c-21.191-7.125-35.924-26.415-37.219-48.734l0,0
		c-0.847-14.598-14.895-24.731-29.016-20.93l0,0c-19.99,5.382-41.309-0.908-55.177-16.279l-2.231-2.473l8.432-20.506
		c5.284-12.849,15.758-22.863,28.832-27.565l12.062-4.337L217.645,247.828z"/>
	<path style="fill:#EF3C3C;" d="M225.897,77.777l-12.781,7.12c-21.707,12.091-36.349,33.805-39.421,58.461l0,0
		c-1.067,8.567,2.61,17.036,9.597,22.106l0,0c17.152,12.444,28.324,31.488,30.818,52.531l3.535,29.834L225.897,77.777z"/>
</g>
<g>
	<path style="fill:#F25353;" d="M173.388,136.208l-34.968,4.512c-16.706,2.156-29.19-15.009-21.993-30.237l0,0
		c3.021-6.392,9.015-10.869,16.001-11.952l17.835-2.764L173.388,136.208z"/>
	<path style="fill:#F25353;" d="M141.387,132.877l5.334-27.84c2.549-13.301,18.794-18.525,28.619-9.204l0,0
		c4.124,3.912,6.038,9.615,5.111,15.223l-3.882,18.93L141.387,132.877z"/>
</g>
<g>
	<path style="fill:#EF3C3C;" d="M350.454,55.737l0.002,64.984c0.001,29.597-17.76,56.302-45.055,67.745l-38.881,16.299
		l-38.882-16.301c-27.295-11.444-45.058-38.15-45.059-67.747l-0.002-64.984"/>
</g>
<path style="fill:#F25353;" d="M266.52,203.861l-13.351-13.511c-15.714-15.903-20.183-39.761-11.291-60.272l0,0
	c5.817-13.416-2.164-28.789-16.484-31.752l0,0c-20.272-4.195-36.476-19.41-41.938-39.379l-0.778,65.54
	c0,0-0.623,28.606,22.89,49.649S266.52,203.861,266.52,203.861z"/>
<path style="fill:#EF3C3C;" d="M266.52,203.861l-13.351-13.511c-15.714-15.903-20.183-39.761-11.291-60.272l0,0
	c5.817-13.416-2.164-28.789-16.484-31.752l0,0c-20.272-4.195-36.476-19.41-41.938-39.379l-0.879-3.213l16.762-14.514
	c10.503-9.094,24.364-13.32,38.155-11.631l12.723,1.558L266.52,203.861z"/>
<path style="fill:#F25353;" d="M344.768,55.737c0,0-3.612-30.277-18.25-34.956L292.786,10l-40.473,19.225l50.122,50.122
	L344.768,55.737z"/>
<path style="fill:#EF3C3C;" d="M350.454,55.737l-14.618,0.602c-24.826,1.023-47.677,13.819-61.521,34.45l0,0
	c-4.81,7.169-5.34,16.386-1.384,24.06l0,0c9.712,18.834,11.113,40.869,3.865,60.781l-10.276,28.231L350.454,55.737z"/>
<g>
	<path style="fill:#F25353;" d="M277.26,84.269l-33.254-11.715c-15.887-5.597-19.306-26.544-6.024-36.901l0,0
		c5.575-4.347,12.943-5.646,19.669-3.467l17.169,5.562L277.26,84.269z"/>
	<path style="fill:#F25353;" d="M250.187,66.885l17.298-22.457c8.264-10.729,25.122-8.079,29.698,4.668l0,0
		c1.92,5.35,1.062,11.304-2.291,15.894l-11.989,15.155L250.187,66.885z"/>
</g>
<g>
	<path style="fill:#EF3C3C;" d="M487.393,145.375l-20.376,61.707c-9.28,28.104-34.52,47.893-64.026,50.2l-42.031,3.285
		l-31.809-27.672c-22.33-19.426-30.822-50.355-21.542-78.46l20.376-61.707"/>
</g>
<path style="fill:#F25353;" d="M361.244,259.707l-8.441-17.016c-9.935-20.028-6.697-44.085,8.179-60.773l0,0
	c9.73-10.916,6.972-28.016-5.696-35.32l0,0c-17.934-10.34-28.55-29.869-27.474-50.543l-21.291,61.99c0,0-9.561,26.967,6.166,54.323
	C328.416,239.724,361.244,259.707,361.244,259.707z"/>
<path style="fill:#EF3C3C;" d="M361.244,259.707l-8.441-17.016c-9.935-20.028-6.697-44.085,8.179-60.773l0,0
	c9.73-10.916,6.972-28.016-5.696-35.32l0,0c-17.934-10.34-28.55-29.869-27.474-50.543l0.173-3.326l20.467-8.525
	c12.825-5.342,27.312-5.008,39.878,0.92l11.593,5.469L361.244,259.707z"/>
<path style="fill:#F25353;" d="M481.994,143.592c0,0,6.064-29.883-6.368-38.916l-28.65-20.815l-44.46,5.564l31.877,63.311
	L481.994,143.592z"/>
<path style="fill:#EF3C3C;" d="M487.393,145.375l-14.07-4.012c-23.894-6.814-49.605-1.829-69.221,13.421l0,0
	c-6.815,5.299-10.209,13.885-8.858,22.412l0,0c3.316,20.93-2.263,42.292-15.389,58.927l-18.61,23.584L487.393,145.375z"/>
<g>
	<path style="fill:#F25353;" d="M408.944,149.515l-27.903-21.552c-13.331-10.296-10.009-31.259,5.852-36.929l0,0
		c6.657-2.38,14.061-1.302,19.764,2.875l14.559,10.665L408.944,149.515z"/>
	<path style="fill:#F25353;" d="M388.687,124.519l23.468-15.9c11.212-7.596,26.389,0.206,26.736,13.745l0,0
		c0.146,5.682-2.536,11.067-7.159,14.374l-16.136,10.631L388.687,124.519z"/>
</g>
<path style="fill:#FEDBAB;" d="M330.97,386.222l108.428-118.555c-23.932,23.932-62.732,23.932-86.664,0l0,0
	c-23.932-23.932-62.732-23.932-86.664,0l0,0c-23.932,23.932-62.732,23.932-86.664,0l0,0c-23.932-23.932-62.732-23.932-86.664,0
	l108.397,118.555l35.778,6.49L196.07,502h140l-43.241-108.857L330.97,386.222z"/>
<path style="fill:#F25353;" d="M273.893,434.122h-15.535c-5.516,0-9.988-4.472-9.988-9.988v-18.267c0-5.517,4.472-9.988,9.988-9.988
	h15.535c5.516,0,9.988,4.472,9.988,9.988v18.267C283.881,429.65,279.409,434.122,273.893,434.122z"/>
<g>
	<path style="fill:#FEB756;" d="M281.875,432.5l24.044,10.929c20.676,9.398,44.15-5.717,44.15-28.429l0,0
		c0-22.712-23.474-37.827-44.15-28.429L281.875,397.5"/>
	<path style="fill:#FEB756;" d="M250.375,397.5l-24.143-10.956c-20.688-9.388-44.163,5.737-44.163,28.456l0,0
		c0,22.719,23.474,37.845,44.163,28.456l24.143-10.956"/>
</g>
<path d="M495.269,139.762c5.003-15.279-0.101-32.765-13.728-42.69L452.882,76.2c-2.053-1.494-4.598-2.154-7.118-1.84l-44.518,5.52
	c-0.352,0.044-0.697,0.106-1.036,0.185l-7.655-3.622c-10.044-4.752-21.151-6.512-32.006-5.286l0-15.367
	c-0.004-0.005-0.008-0.008-0.012-0.012c0-0.133,0.009-0.264,0.004-0.398c-0.137-3.318-1.883-6.183-4.448-7.897
	c-0.053-16.082-10.401-31.08-26.463-36.214L295.858,0.474c-2.417-0.772-5.041-0.597-7.335,0.493l-40.521,19.248
	c-0.32,0.152-0.627,0.32-0.923,0.5l-8.407-1.029c-16.587-2.034-33.334,3.076-45.96,14.01l-16.781,14.529
	c-2.053,1.777-3.235,4.278-3.41,6.898c-0.016,0.117-0.028,0.248-0.034,0.391c-0.001,0.054-0.005,0.107-0.006,0.16
	c-0.001,0.039-0.004,0.07-0.004,0.111l0.001,27.972c-4.62-1.248-9.571-1.276-14.353,0.051c-2.626,0.729-5.075,1.847-7.307,3.268
	l-17.296,1.973c-3.374,0.385-6.606,1.313-9.603,2.699l-11.713,3.687c-15.933,5.017-29.068,16.601-36.036,31.781l-9.26,20.174
	c-1.229,2.677-1.189,5.707-0.004,8.31c-0.003,0.001-0.006,0.002-0.01,0.003l26.937,59.221c4.994,10.98,12.147,20.48,20.81,28.12
	c-10.604,3.325-20.584,9.162-28.971,17.55c-3.772,3.772-3.919,9.841-0.334,13.791l100.06,110.263
	c-8.438,7.737-13.327,18.651-13.327,30.35c0,14.084,7.068,27.046,18.907,34.675c3.762,2.424,7.82,4.161,12.011,5.251l-16.286,43.573
	c-1.147,3.07-0.717,6.508,1.151,9.201c1.869,2.693,4.938,4.3,8.216,4.3h140c3.314,0,6.413-1.642,8.274-4.384s2.243-6.228,1.02-9.308
	l-17.145-43.161c4.522-1.062,8.903-2.882,12.944-5.484c11.839-7.623,18.908-20.581,18.908-34.663c0-11.896-5.06-22.977-13.763-30.73
	l100.47-109.854c3.668-4.012,3.461-10.219-0.468-13.976c-2.569-2.458-6.112-3.268-9.333-2.466
	c18.297-9.916,32.598-26.528,39.436-47.157l20.469-61.755C497.973,145.767,497.254,142.309,495.269,139.762z M469.767,113.239
	c6.149,4.479,8.622,12.198,6.811,19.179l-0.518-0.148c-9.123-2.614-18.518-3.687-27.812-3.299c0.447-2.076,0.66-4.219,0.606-6.392
	c-0.244-9.927-5.877-18.92-14.704-23.47c-2.084-1.074-4.269-1.85-6.495-2.35l16.648-2.064L469.767,113.239z M410.939,138.947
	l-11.764-9.108l18.529-12.523c3.169-2.144,6.147-1.017,7.282-0.431c1.133,0.584,3.78,2.356,3.874,6.183
	c0.059,2.376-1.062,4.618-2.945,5.962l-9.259,6.521c-0.581,0.409-1.102,0.87-1.568,1.37
	C413.69,137.561,412.305,138.233,410.939,138.947z M382.8,109.707c0.664-4.155,3.425-7.478,7.388-8.89
	c3.547-1.262,7.475-0.687,10.51,1.542l1.639,1.204l-18.666,12.615C382.771,114.201,382.438,111.979,382.8,109.707z M370.322,90.883
	c-3.765,4.318-6.314,9.676-7.272,15.67c-1.833,11.486,2.563,22.595,11.76,29.716l19.05,14.749
	c-6.988,7.506-10.267,17.878-8.643,28.205c0.701,4.455,0.944,8.995,0.723,13.494c-0.021,0.435-0.02,0.802,0.016,1.235
	c0.011,0.164,0.975,16.61-10.63,31.606c-0.736,0.951-1.398,1.896-1.983,2.731c-0.551,0.787-1.072,1.53-1.565,2.152l-8.857,11.199
	l-1.426-2.883c-8.158-16.494-5.508-36.017,6.752-49.738c6.663-7.458,9.577-17.398,7.996-27.273s-7.454-18.409-16.112-23.414
	c-13.917-8.045-22.365-22.616-22.53-38.525l14.588-6.058C357.972,91.349,364.196,90.4,370.322,90.883z M223.723,197.895l3.715,1.558
	c-0.629,14.993-6.036,29.207-15.58,40.832l-12.166-4.642c-8.42-3.213-15.426-8.725-20.428-15.67
	c0.262-0.715,0.455-1.466,0.549-2.255l6.129-51.34C194.881,180.135,207.869,191.247,223.723,197.895z M244.095,43.568
	c2.969-2.315,6.88-3.003,10.461-1.844l1.935,0.627l-13.748,17.848c-1.478-1.593-2.493-3.598-2.864-5.87
	C239.202,50.177,240.778,46.154,244.095,43.568z M275.406,50.571c2.334-3.031,5.514-2.902,6.775-2.7
	c1.26,0.197,4.33,1.047,5.623,4.65c0.802,2.235,0.445,4.716-0.92,6.585l-6.736,9.104c-0.423,0.572-0.773,1.174-1.058,1.796
	c-1.125,1.047-2.228,2.119-3.3,3.226l-14.032-4.944L275.406,50.571z M288.106,126.271c-1.56-5.479-3.672-10.82-6.283-15.883
	c-2.291-4.443-1.984-9.781,0.801-13.932c12.039-17.94,32.113-29.183,53.7-30.072l4.225-0.174l0.001,10.717l-16.53,6.863
	c-2.521,1.046-4.437,3.062-5.423,5.511c-0.042,0.089-0.082,0.184-0.121,0.281c-0.025,0.067-0.053,0.132-0.076,0.2
	c-0.012,0.034-0.026,0.063-0.037,0.097l-20.47,61.756c-3.592,10.836-4.865,22.014-4.004,32.923
	c-3.65,3.135-7.808,5.602-12.281,7.307l4.594-12.621c0.47-1.291,0.843-2.537,1.173-3.637c0.251-0.838,0.488-1.63,0.73-2.316
	C296.26,150.126,289.642,130.307,288.106,126.271z M353.332,175.695c-12.927,14.469-18.456,33.397-15.935,51.836l-1.962-1.711
	c-11.016-9.606-18.115-22.381-20.702-36.099c0.438-2.187,0.138-4.479-0.884-6.494c-0.696-8.379,0.268-16.972,3.028-25.299
	l8.925-26.926c5.605,10.053,13.896,18.619,24.32,24.644c3.425,1.98,5.748,5.355,6.373,9.262
	C357.12,168.814,355.967,172.746,353.332,175.695z M209.979,262.721l10.619,12.842c-11.546-0.471-22.404-4.75-31.141-12.229
	L209.979,262.721z M243.114,271.408l-15.534-18.786c10.596-13.029,17.198-28.545,19.239-45.044l9.697,4.065v51.259
	C252.47,266.457,247.955,269.312,243.114,271.408z M276.516,213.823c7.789-1.244,15.213-3.972,21.901-7.975
	c4.701,13.249,12.776,25.368,23.87,35.043c-4.211-0.765-8.516-1.174-12.887-1.174c-11.641,0-22.85,2.785-32.885,8.016v-33.91
	H276.516z M293.535,20.728l30.006,9.591c7.246,2.316,12.022,8.864,12.5,16.061l-0.538,0.022c-9.482,0.391-18.737,2.329-27.438,5.622
	c-0.229-2.112-0.701-4.214-1.436-6.262c-3.355-9.345-11.532-16.108-21.342-17.649c-2.317-0.364-4.635-0.412-6.908-0.185
	L293.535,20.728z M205.804,48.816c4.733-4.098,10.341-6.956,16.307-8.425c-2.214,5.282-2.948,11.169-1.97,17.159
	c1.874,11.48,9.542,20.642,20.513,24.507l22.723,8.006c-4.272,9.324-4.121,20.202,0.671,29.493c2.065,4.005,3.725,8.237,4.932,12.58
	c0.116,0.419,0.26,0.83,0.43,1.229c0.063,0.149,6.136,15.371-0.171,33.284c-0.399,1.135-0.731,2.242-1.023,3.219
	c-0.275,0.92-0.536,1.789-0.807,2.533l-4.884,13.416l-2.261-2.288c-12.934-13.088-16.561-32.453-9.242-49.335
	c3.978-9.176,3.617-19.528-0.991-28.404s-12.868-15.129-22.662-17.156c-15.74-3.256-28.344-14.431-33.507-29.479L205.804,48.816z
	 M223.316,108.22c3.874,0.801,7.141,3.274,8.963,6.785c1.822,3.511,1.965,7.605,0.392,11.234
	c-7.717,17.801-7.01,37.507,1.185,54.216l-2.4-1.006c-23.678-9.927-38.978-32.931-38.978-58.604v-8.977
	c0.089-1.255,0.084-2.506,0-3.748V92.479C200.961,100.258,211.526,105.781,223.316,108.22z M170.521,104.984
	c1.094,1.125,1.761,2.558,1.957,4.071v1.812c-0.023,0.184-0.041,0.369-0.079,0.553c-0.058,0.278-0.104,0.559-0.137,0.841
	l-1.953,16.361l-16.967,1.5l5.088-21.777c0.871-3.727,3.821-4.923,5.049-5.264C164.707,102.738,167.854,102.241,170.521,104.984z
	 M127.029,114.931c1.744-3.337,5.018-5.583,8.758-6.01l2.022-0.231l-5.125,21.936c-2.005-0.838-3.76-2.24-5.037-4.154
	C125.311,122.974,125.08,118.659,127.029,114.931z M94.346,135.562c2.612-5.69,6.533-10.614,11.356-14.422
	c0.171,5.725,1.941,11.388,5.311,16.436c5.918,8.866,15.458,13.943,25.93,13.943c0.956,0,1.921-0.042,2.89-0.128l28.054-2.479
	l-3.218,26.952c-1.805-2.512-3.974-4.789-6.475-6.75c-7.869-6.172-17.976-8.445-27.732-6.236
	c-15.676,3.555-31.775-1.399-42.705-12.961L94.346,135.562z M100.293,180.825c10.942,3.568,22.846,4.221,34.589,1.56
	c3.857-0.872,7.856,0.025,10.969,2.467c3.112,2.44,4.937,6.108,5.007,10.063c0.345,19.398,9.148,37.045,23.526,48.863l-2.603,0.078
	c-25.66,0.741-49.113-13.841-59.743-37.21L100.293,180.825z M192.07,415c0-7.363,3.55-13.874,9.74-17.862s13.585-4.532,20.291-1.487
	l16.479,7.478c-0.124,0.898-0.21,1.807-0.21,2.738v18.268c0,0.931,0.086,1.84,0.21,2.738l-16.479,7.478
	c-6.705,3.044-14.1,2.501-20.291-1.487C195.62,428.874,192.07,422.363,192.07,415z M273.881,405.866l0.023,18.256
	c0,0-0.003,0-0.011,0l-15.524,0.012l-0.011-18.256L273.881,405.866z M210.483,492l13.931-37.272
	c2.016-0.566,4.006-1.283,5.951-2.166l21.241-9.639c2.113,0.762,4.38,1.199,6.752,1.199h15.535c2.371,0,4.637-0.437,6.75-1.198
	l21.138,9.608c1.501,0.683,3.03,1.261,4.576,1.755L321.337,492H210.483z M330.334,432.847c-6.187,3.984-13.578,4.523-20.277,1.478
	l-16.387-7.448c0.124-0.899,0.211-1.81,0.211-2.743v-18.268c0-0.933-0.087-1.844-0.211-2.743l16.387-7.448
	c5.429-2.469,11.312-2.581,16.641-0.415c0.091,0.043,0.184,0.08,0.276,0.12c1.15,0.486,2.274,1.073,3.36,1.772
	c6.187,3.983,9.735,10.489,9.735,17.848S336.521,428.864,330.334,432.847z M327.885,374.776c-8.629-1.95-17.767-1.098-26.104,2.691
	l-21.139,9.608c-2.112-0.761-4.378-1.198-6.75-1.198h-15.535c-2.372,0-4.639,0.437-6.752,1.199l-21.241-9.639
	c-8.559-3.884-17.963-4.678-26.793-2.519l-96.437-106.272c8.458-5.806,18.459-8.929,28.939-8.929
	c13.698,0,26.575,5.335,36.261,15.021c27.227,27.226,71.169,27.761,99.077,1.644c1.447-0.815,2.667-1.98,3.553-3.38
	c9.45-8.584,21.582-13.284,34.437-13.284c13.698,0,26.575,5.335,36.261,15.021c3.272,3.272,6.81,6.179,10.559,8.717l-32.768,35.829
	c-3.727,4.075-3.445,10.401,0.63,14.128c1.919,1.755,4.336,2.621,6.746,2.621c2.709,0,5.41-1.095,7.382-3.251l36.857-40.299
	c6.715,2.06,13.773,3.132,20.996,3.132c1.453,0,2.899-0.043,4.337-0.128L327.885,374.776z M432.327,260.595
	c-9.686,9.686-22.563,15.02-36.261,15.02c-8.126,0-15.958-1.891-23.011-5.441l30.476-2.347c10.423-0.803,20.36-3.507,29.431-7.805
	C432.744,260.204,432.53,260.392,432.327,260.595z M401.994,247.885l-19.712,1.519l5.182-6.552c0.853-1.078,1.6-2.145,2.259-3.085
	c0.501-0.716,0.976-1.393,1.422-1.969c15.029-19.421,14.984-40.315,14.796-44.629c0.244-5.689-0.081-11.424-0.966-17.055
	c-0.776-4.938,1.195-9.909,5.144-12.972c17.073-13.242,39.667-17.594,60.435-11.647l4.064,1.164l-17.191,51.864
	C449.349,228.894,427.591,245.914,401.994,247.885z"/>
<path d="M308.53,340.42c-2.63,0-5.21,1.06-7.07,2.92c-1.86,1.87-2.93,4.44-2.93,7.08c0,2.63,1.07,5.21,2.93,7.07
	c1.86,1.859,4.44,2.93,7.07,2.93s5.21-1.07,7.07-2.93c1.87-1.87,2.93-4.44,2.93-7.07c0-2.64-1.06-5.21-2.93-7.08
	C313.74,341.479,311.16,340.42,308.53,340.42z"/>
<path d="M393.176,50.468h5.5v5.5c0,5.522,4.477,10,10,10s10-4.478,10-10v-5.5h5.5c5.523,0,10-4.478,10-10s-4.477-10-10-10h-5.5v-5.5
	c0-5.522-4.477-10-10-10s-10,4.478-10,10v5.5h-5.5c-5.523,0-10,4.478-10,10S387.653,50.468,393.176,50.468z"/>
<path d="M55.607,245.174h-5.5v-5.5c0-5.522-4.477-10-10-10s-10,4.478-10,10v5.5h-5.5c-5.523,0-10,4.478-10,10
	c0,5.522,4.477,10,10,10h5.5v5.5c0,5.522,4.477,10,10,10s10-4.478,10-10v-5.5h5.5c5.523,0,10-4.478,10-10
	C65.607,249.652,61.13,245.174,55.607,245.174z"/>
<path d="M55.607,78.271h5.5v5.5c0,5.522,4.477,10,10,10s10-4.478,10-10v-5.5h5.5c5.523,0,10-4.478,10-10s-4.477-10-10-10h-5.5v-5.5
	c0-5.522-4.477-10-10-10s-10,4.478-10,10v5.5h-5.5c-5.523,0-10,4.478-10,10S50.084,78.271,55.607,78.271z"/>
<path d="M114.496,39.247h0.313c5.523,0,10-4.478,10-10s-4.477-10-10-10h-0.313c-5.523,0-10,4.478-10,10
	S108.974,39.247,114.496,39.247z"/>
<path d="M487.354,251.097h-0.313c-5.523,0-10,4.478-10,10c0,5.522,4.477,10,10,10h0.313c5.523,0,10-4.478,10-10
	C497.354,255.575,492.877,251.097,487.354,251.097z"/>
<path d="M486.884,67.763h0.313c5.523,0,10-4.478,10-10s-4.477-10-10-10h-0.313c-5.523,0-10,4.478-10,10
	S481.361,67.763,486.884,67.763z"/>
<g>
</g>
<g>
</g>
<g>
</g>
<g>
</g>
<g>
</g>
<g>
</g>
<g>
</g>
<g>
</g>
<g>
</g>
<g>
</g>
<g>
</g>
<g>
</g>
<g>
</g>
<g>
</g>
<g>
</g>
</svg>
