<svg height="511pt" viewBox="0 1 511 511.99975" width="511pt" xmlns="http://www.w3.org/2000/svg"><path d="m256.5 452c-8.285156 0-15-6.714844-15-15v-232c0-8.285156 6.714844-15 15-15 8.28125 0 15 6.714844 15 15v232c0 8.285156-6.714844 15-15 15zm0 0" fill="#b45f19"/><path d="m271.5 437v-232c0-8.285156-6.71875-15-15-15v262c8.285156 0 15-6.714844 15-15zm0 0" fill="#965015"/><path d="m466.496094 350c-8.28125 0-15-6.714844-15-15v-100c0-8.285156 6.71875-15 15-15 8.285156 0 15 6.714844 15 15v100c0 8.285156-6.714844 15-15 15zm0 0" fill="#ccd3e2"/><path d="m46.5 350c-8.285156 0-15-6.714844-15-15v-100c0-8.285156 6.714844-15 15-15 8.28125 0 15 6.714844 15 15v100c0 8.285156-6.714844 15-15 15zm0 0" fill="#e8edf5"/><path d="m66.5 350h-40c-8.285156 0-15-6.714844-15-15s6.714844-15 15-15h40c8.28125 0 15 6.714844 15 15s-6.714844 15-15 15zm0 0" fill="#ffe54e"/><path d="m166.5 350c-8.285156 0-15-6.714844-15-15v-100c0-8.285156 6.714844-15 15-15 8.28125 0 15 6.714844 15 15v100c0 8.285156-6.714844 15-15 15zm0 0" fill="#e8edf5"/><path d="m186.5 350h-40c-8.285156 0-15-6.714844-15-15s6.714844-15 15-15h40c8.28125 0 15 6.714844 15 15s-6.714844 15-15 15zm0 0" fill="#ffe54e"/><path d="m486.496094 350h-40c-8.28125 0-14.996094-6.714844-14.996094-15s6.714844-15 14.996094-15h40c8.285156 0 15 6.714844 15 15s-6.714844 15-15 15zm0 0" fill="#ffbd1c"/><path d="m346.5 350c-8.285156 0-15-6.714844-15-15v-100c0-8.285156 6.714844-15 15-15 8.28125 0 15 6.714844 15 15v100c0 8.285156-6.714844 15-15 15zm0 0" fill="#ccd3e2"/><path d="m366.5 350h-40c-8.285156 0-15-6.714844-15-15s6.714844-15 15-15h40c8.28125 0 15 6.714844 15 15s-6.71875 15-15 15zm0 0" fill="#ffbd1c"/><path d="m503.058594 142.042969-240-140c-4.671875-2.722657-10.445313-2.722657-15.117188 0l-240 140c-5.851562 3.414062-8.6875 10.332031-6.921875 16.871093 1.769531 6.542969 7.707031 11.085938 14.480469 11.085938h480c6.777344 0 12.710938-4.542969 14.480469-11.085938 1.765625-6.539062-1.070313-13.457031-6.921875-16.871093zm0 0" fill="#00a3e6"/><path d="m503.058594 142.042969-240-140c-2.039063-1.1875-4.285156-1.855469-6.558594-2.0078128v169.9648438h239c6.777344 0 12.710938-4.542969 14.480469-11.085938 1.765625-6.539062-1.070313-13.457031-6.921875-16.871093zm0 0" fill="#0076b1"/><path d="m388.367188 145.214844-120.5-140-.011719.003906c-1.617188-1.882812-3.707031-3.378906-6.136719-4.28125-5.882812-2.179688-12.5-.476562-16.589844 4.277344l-120.5 140c-3.824218 4.445312-4.707031 10.710937-2.265625 16.039062 2.445313 5.332032 7.773438 8.746094 13.636719 8.746094h241c5.859375 0 11.1875-3.414062 13.632812-8.746094 2.445313-5.328125 1.558594-11.59375-2.265624-16.039062zm0 0" fill="#ff455a"/><path d="m267.867188 5.214844-.011719.003906c-1.617188-1.882812-3.707031-3.378906-6.136719-4.28125-1.707031-.632812-3.472656-.9257812-5.21875-.9257812v169.9882812h120.5c5.859375 0 11.1875-3.414062 13.632812-8.746094 2.441407-5.328125 1.558594-11.59375-2.265624-16.039062zm0 0" fill="#bf0032"/><path d="m396.5 421h-280c-41.355469 0-75 33.644531-75 75h429.996094c0-41.355469-33.644532-75-74.996094-75zm0 0" fill="#ff455a"/><path d="m396.5 421h-140v75h214.996094c0-41.355469-33.644532-75-74.996094-75zm0 0" fill="#bf0032"/><path d="m476.496094 512h-439.996094c-8.285156 0-15-6.714844-15-15s6.714844-15 15-15h439.996094c8.285156 0 15 6.714844 15 15s-6.714844 15-15 15zm0 0" fill="#656e73"/><path d="m476.496094 482h-219.996094v30h219.996094c8.285156 0 15-6.714844 15-15s-6.714844-15-15-15zm0 0" fill="#525c5c"/><path d="m466.496094 250c-11.511719 0-22.03125-4.347656-29.996094-11.484375-7.96875 7.136719-18.488281 11.484375-30 11.484375-11.515625 0-22.035156-4.347656-30-11.484375-7.96875 7.136719-18.488281 11.484375-30 11.484375-11.515625 0-22.035156-4.347656-30-11.484375-7.96875 7.136719-18.488281 11.484375-30 11.484375-11.515625 0-22.035156-4.347656-30-11.484375-7.96875 7.136719-18.488281 11.484375-30 11.484375-11.515625 0-22.035156-4.347656-30-11.484375-7.96875 7.136719-18.488281 11.484375-30 11.484375-11.515625 0-22.035156-4.347656-30-11.484375-7.96875 7.136719-18.488281 11.484375-30 11.484375-11.515625 0-22.035156-4.347656-30-11.484375-7.96875 7.136719-18.484375 11.484375-30 11.484375-24.8125 0-45-20.1875-45-45v-50c0-8.285156 6.714844-15 15-15h479.996094c8.285156 0 15 6.714844 15 15v50c0 24.8125-20.183594 45-45 45zm0 0" fill="#0076b1"/><path d="m496.496094 140h-239.996094v98.515625c7.964844 7.136719 18.484375 11.484375 30 11.484375 11.511719 0 22.03125-4.347656 30-11.484375 7.964844 7.136719 18.484375 11.484375 30 11.484375 11.511719 0 22.03125-4.347656 30-11.484375 7.964844 7.136719 18.484375 11.484375 30 11.484375 11.511719 0 22.03125-4.347656 30-11.484375 7.964844 7.136719 18.484375 11.484375 29.996094 11.484375 24.816406 0 45-20.1875 45-45v-50c0-8.285156-6.714844-15-15-15zm0 0" fill="#005f92"/></svg>