<?xml version="1.0" encoding="iso-8859-1"?>
<!-- Generator: Adobe Illustrator 19.0.0, SVG Export Plug-In . SVG Version: 6.00 Build 0)  -->
<svg version="1.1" id="Layer_1" xmlns="http://www.w3.org/2000/svg" xmlns:xlink="http://www.w3.org/1999/xlink" x="0px" y="0px"
	 viewBox="0 0 512 512" style="enable-background:new 0 0 512 512;" xml:space="preserve">
<path style="fill:#F1D849;" d="M431.649,24.613L351.3,160.723v68.055H256h-95.299v-68.055L80.351,24.613L0,160.723v326.664h160.701
	h32.454v-90.011c0-34.708,28.137-62.845,62.845-62.845s62.845,28.137,62.845,62.845v90.011h32.454H512V160.723L431.649,24.613z"/>
<path style="fill:#F9A846;" d="M431.649,24.613L351.3,160.723v68.055H256v105.754c34.708,0,62.845,28.137,62.845,62.845v90.011
	h32.454H512V160.723L431.649,24.613z"/>
<g>
	<path style="fill:#E9E9EA;" d="M105.312,296.833V261.08c0-13.786-11.176-24.961-24.961-24.961
		c-13.786,0-24.961,11.176-24.961,24.961v35.752H105.312z"/>
	<path style="fill:#E9E9EA;" d="M105.312,422.466v-35.751c0-13.786-11.176-24.962-24.961-24.962
		c-13.786,0-24.961,11.176-24.961,24.962v35.751H105.312z"/>
</g>
<g>
	<path style="fill:#D9D8DB;" d="M406.688,296.833V261.08c0-13.786,11.176-24.961,24.962-24.961s24.961,11.176,24.961,24.961v35.752
		H406.688z"/>
	<path style="fill:#D9D8DB;" d="M406.688,422.466v-35.751c0-13.786,11.176-24.962,24.962-24.962s24.961,11.176,24.961,24.962v35.751
		H406.688z"/>
</g>
<polygon style="fill:#A52769;" points="431.649,24.613 351.3,160.723 512,160.723 "/>
<polygon style="fill:#E849A4;" points="80.351,24.613 0,160.723 160.701,160.723 "/>
<g>
</g>
<g>
</g>
<g>
</g>
<g>
</g>
<g>
</g>
<g>
</g>
<g>
</g>
<g>
</g>
<g>
</g>
<g>
</g>
<g>
</g>
<g>
</g>
<g>
</g>
<g>
</g>
<g>
</g>
</svg>
