<svg height="512" viewBox="0 0 512 512" width="512" xmlns="http://www.w3.org/2000/svg"><path d="m494.134 381.28-54.51-26.587-31.624-58.693h-32l-32 56c24.608 37.98 126.175 51.145 126.175 51.145l7.43 28.72a9.888 9.888 0 0 0 19.243-.41l6.845-32.035a16 16 0 0 0 -9.559-18.14z" fill="#eac08c"/><path d="m280 192h61.4a18.6 18.6 0 0 1 18.6 18.6 18.6 18.6 0 0 1 -12.716 17.643l-11.284 3.757h-56z" fill="#eac08c"/><path d="m312 328c-64 0-75.036-55.815-78.821-82.327a15.98 15.98 0 0 0 -15.842-13.673h-98.337a27.315 27.315 0 0 1 -19.314 8 20.687 20.687 0 0 1 -20.686-20.686v-6.628a20.687 20.687 0 0 1 20.686-20.686 27.315 27.315 0 0 1 19.314 8h105a40 40 0 0 1 -40-40l16-8v-48s82.687-19.969 96 0c11.549 17.323-1.91 47.15-10.292 62.405a15.994 15.994 0 0 0 2.062 18.336l56.23 63.259c56 0 66.89 41.558 64 64-2.29 17.783-15.255 38.8-45.393 54.663a1 1 0 0 0 .291 1.864l71.964 13.084a16 16 0 0 1 13.138 15.742v32.758a9.888 9.888 0 0 1 -9.889 9.889 9.888 9.888 0 0 1 -8.844-5.466l-13.267-26.534s-80 8-112-24c-13.216-13.216-1.707-36.64 12.3-56z" fill="#f9e9d2"/><path d="m465.231 8.262a38.586 38.586 0 0 1 38.769 38.4c0 54.857-72 76.8-72 76.8s-72-21.943-72-76.8a38.811 38.811 0 0 1 70.791-21.577 1.472 1.472 0 0 0 2.418 0 38.777 38.777 0 0 1 32.022-16.823z" fill="#fbd5e0"/><path d="m484.615 160.262a19.293 19.293 0 0 1 19.385 19.2c0 27.428-36 38.4-36 38.4s-36-10.972-36-38.4a19.406 19.406 0 0 1 35.4-10.789.736.736 0 0 0 1.21 0 19.387 19.387 0 0 1 16.005-8.411z" fill="#fbc8d6"/><path d="m220.615 359.262a19.293 19.293 0 0 1 19.385 19.2c0 27.428-36 38.4-36 38.4s-36-10.972-36-38.4a19.406 19.406 0 0 1 35.4-10.789.736.736 0 0 0 1.21 0 19.387 19.387 0 0 1 16.005-8.411z" fill="#fbc8d6"/><path d="m111.038 392.062a37.782 37.782 0 0 1 37.962 37.6c0 53.714-70.5 75.2-70.5 75.2s-70.5-21.486-70.5-75.2a38 38 0 0 1 69.316-21.128 1.441 1.441 0 0 0 2.368 0 37.967 37.967 0 0 1 31.354-16.472z" fill="#fbd5e0"/><path d="m477.927 10.379a75.992 75.992 0 0 1 -73.927 93.621 76.372 76.372 0 0 1 -11.521-.875 146.835 146.835 0 0 0 39.521 20.337s72-21.943 72-76.8a38.438 38.438 0 0 0 -26.073-36.283z" fill="#fbc8d6"/><path d="m127.221 395.646a87.971 87.971 0 0 1 -103.183 74.89c20.803 24.064 54.462 34.326 54.462 34.326s70.5-21.486 70.5-75.2a37.578 37.578 0 0 0 -21.779-34.016z" fill="#fbc8d6"/><path d="m185.639 407.691a73.855 73.855 0 0 0 18.361 9.171s36-10.972 36-38.4a19.121 19.121 0 0 0 -8.435-15.838 52.008 52.008 0 0 1 -45.926 45.067z" fill="#fbb0c4"/><path d="m448.388 207.8a73.486 73.486 0 0 0 19.612 10.062s36-10.972 36-38.4a19.132 19.132 0 0 0 -8.551-15.924 52.006 52.006 0 0 1 -47.061 44.262z" fill="#fbb0c4"/><g fill="#fff"><circle cx="40" cy="416" r="16"/><circle cx="76" cy="436" r="12"/><circle cx="392" cy="32" r="16"/><circle cx="428" cy="52" r="12"/></g><circle cx="452" cy="172" fill="#fbe7ed" r="12"/><circle cx="188" cy="372" fill="#fbe7ed" r="12"/><path d="m448 430.111v-32.758a16 16 0 0 0 -13.138-15.742l-71.962-13.084a1 1 0 0 1 -.291-1.864c30.136-15.863 43.101-36.88 45.391-54.663 1.729-13.425-1.478-33.687-16.317-47.8q.31 3.861.317 7.8a96 96 0 0 1 -93.789 95.972c-.251 6.119 1.4 11.638 5.789 16.028 32 32 112 24 112 24l13.267 26.534a9.889 9.889 0 0 0 18.733-4.423z" fill="#f2ddc4"/><path d="m92 232a35.925 35.925 0 0 1 -9.587-1.318 20.659 20.659 0 0 0 17.273 9.318 27.315 27.315 0 0 0 19.314-8h3.075v-16.221a35.961 35.961 0 0 1 -30.075 16.221z" fill="#f2ddc4"/><circle cx="96" cy="200" fill="#fff5e5" r="8"/><circle cx="364" cy="268" fill="#fff5e5" r="12"/><circle cx="360" cy="296" fill="#fff5e5" r="8"/><path d="m283.75 174.853a15.981 15.981 0 0 1 1.958-8.448c8.382-15.255 21.841-45.082 10.292-62.405-13.313-19.969-96 0-96 0v25.246a66.216 66.216 0 0 0 37.606 31.422c17.73 5.816 35.434 11.691 46.144 14.185z" fill="#f2ddc4"/><path d="m248 136a16 16 0 0 0 16 16h31.928c16.072 0 16.157-24.974 16.157-24.974a16.8 16.8 0 0 0 0-30.028l-.046-.023a16.783 16.783 0 0 0 -15.017-25.987h-.01a16.742 16.742 0 0 0 -25.012-15.581l-.97.554-.03-.046a16.8 16.8 0 0 0 -30.02.032l-.007.014a16.783 16.783 0 0 0 -25.987 15.017v.01h-.01a16.783 16.783 0 0 0 -15.017 25.987l-.046.024c-.09.045-.18.091-.269.138-11.189 5.847-6.844 22.863 5.779 22.863h26.577a16 16 0 0 1 16 16z" fill="#b39ddb"/><circle cx="228" cy="76" fill="#d1c4e9" r="12"/><circle cx="256" cy="88" fill="#d1c4e9" r="8"/><path d="m312.085 97-.046-.023a16.8 16.8 0 0 0 -11.447-25.832 80.139 80.139 0 0 1 -56.579 54.313 15.917 15.917 0 0 1 3.987 10.542 16 16 0 0 0 16 16h31.928c16.072 0 16.157-24.974 16.157-24.974a16.8 16.8 0 0 0 0-30.026z" fill="#9575cd"/><path d="m436.293 373.74-54.108-9.84c19.28-14.089 31.32-32.015 33.75-50.881 1.828-14.2-1.188-35.024-15.135-50.882-8.527-9.7-24.594-21.177-53.156-22.082l-35.607-40.055h29.363a10.6 10.6 0 0 1 10.141 13.677 8 8 0 1 0 15.31 4.646 26.6 26.6 0 0 0 -25.451-34.323h-43.586l-4.065-4.573a8.018 8.018 0 0 1 -1.029-9.169c1.9-3.464 3.653-6.93 5.254-10.358 13.623-1.223 20.623-14.608 21.9-28.378a24.842 24.842 0 0 0 2.067-37.214 24.84 24.84 0 0 0 -17.68-30.571 24.755 24.755 0 0 0 -30.55-17.645 24.665 24.665 0 0 0 -17.711-7.416h-.026a24.679 24.679 0 0 0 -17.657 7.388 24.84 24.84 0 0 0 -30.579 17.673 24.838 24.838 0 0 0 -17.607 30.819 20.239 20.239 0 0 0 15.292 33.444h26.577a8.009 8.009 0 0 1 8 8 24.028 24.028 0 0 0 24 24h16.061c-.448.85-.9 1.7-1.364 2.553a24.048 24.048 0 0 0 3.093 27.5l58.617 65.947h3.593c19.969 0 35.036 5.62 44.785 16.7 10.425 11.853 12.662 27.542 11.28 38.274-2.364 18.361-17.375 36.076-41.186 48.605a9 9 0 0 0 2.588 16.814l71.965 13.084a8 8 0 0 1 6.568 7.877v32.757a1.889 1.889 0 0 1 -3.578.846l-15.734-31.457-5.481.543c-.763.075-76.622 7.232-105.55-21.7-2.414-2.413-3.52-5.4-3.481-9.383.208-21.119 31.375-55.663 43.365-67.189a8 8 0 0 0 -11.082-11.542 265.732 265.732 0 0 0 -26.3 29.779c-.055 0-.107-.008-.162-.008-53.9 0-66.276-43.065-70.9-75.458a24.086 24.086 0 0 0 -23.76-20.542h-101.65l-2.344 2.343a19.185 19.185 0 0 1 -13.656 5.657 12.7 12.7 0 0 1 -12.687-12.687v-6.626a12.7 12.7 0 0 1 12.687-12.687 19.185 19.185 0 0 1 13.656 5.657l2.344 2.343h132.313a24.028 24.028 0 0 1 24 24 8 8 0 0 0 16 0 40.045 40.045 0 0 0 -40-40h-24a32.051 32.051 0 0 1 -31.646-27.232l11.224-5.613a8 8 0 1 0 -7.156-14.31l-20.422 10.211v4.944a47.8 47.8 0 0 0 12.261 32h-66.186a34.965 34.965 0 0 0 -18.075-7.736v-8.264a47.99 47.99 0 0 1 21.47-39.976l21.881 15.628a8 8 0 1 0 9.3-13.019l-13.677-9.769a47.977 47.977 0 0 1 9.026-.864 8 8 0 0 0 0-16 64.072 64.072 0 0 0 -64 64v10.5a28.768 28.768 0 0 0 -16.611 21.5h-36.7l9.97-9.97a8 8 0 1 0 -11.314-11.314l-28.285 28.284 3.272 3.273a8.01 8.01 0 0 0 5.4 5.394l19.616 19.617a8 8 0 1 0 11.309-11.314l-7.97-7.97h34.7a28.768 28.768 0 0 0 16.613 21.5v26.5a64.072 64.072 0 0 0 64 64 8 8 0 0 0 0-16 47.967 47.967 0 0 1 -8.766-.817l69.32-47.991a8 8 0 0 0 -9.108-13.154l-77.946 53.962a47.989 47.989 0 0 1 -21.5-40v-24.264a34.965 34.965 0 0 0 18.075-7.736h95.262a8.008 8.008 0 0 1 7.922 6.8c2.265 15.865 6.363 36.38 18.044 54.337 13.3 20.451 32.917 31.982 58.389 34.38-6.579 11.087-11.409 22.767-11.515 33.271-.084 8.342 2.663 15.361 8.166 20.865 29.536 29.536 93.548 27.957 112.909 26.735l10.86 21.721a17.889 17.889 0 0 0 33.888-8v-32.755a23.989 23.989 0 0 0 -19.707-23.614zm-172.293-229.74a8.009 8.009 0 0 1 -8-8 24.028 24.028 0 0 0 -24-24h-26.577a4.006 4.006 0 0 1 -4.075-3.243 3.754 3.754 0 0 1 2-4.528l8.212-4.194-4.916-7.462a8.785 8.785 0 0 1 7.3-13.618c.143 0 .287 0 .43.01l9.662.958-1.066-9.595a8.784 8.784 0 0 1 13.609-7.686l7.337 4.814 4.131-7.745.093-.18a8.645 8.645 0 0 1 7.857-4.855h.003a8.678 8.678 0 0 1 7.9 4.924l3.811 7.462 8.255-4.708a8.74 8.74 0 0 1 13.062 8.135l-.585 9.5 9.229-1.025a8.784 8.784 0 0 1 7.686 13.609l-4.917 7.462 7.959 4.065.1.049a8.8 8.8 0 0 1 0 15.725l-4.368 2.215-.046 4.886c0 .171-.629 17.025-8.157 17.025z"/><path d="m497.436 373.989-51.991-25.358-8.845-16.426a8 8 0 0 0 -14.086 7.59l11.286 20.959 56.824 27.717.463.208a8 8 0 0 1 4.78 9.069l-6.845 32.035a1.888 1.888 0 0 1 -3.675.078l-5.602-21.661a8 8 0 0 0 -15.49 4.008l5.6 21.665a17.889 17.889 0 0 0 34.813-.743l6.845-32.036a23.989 23.989 0 0 0 -14.077-27.105z"/><path d="m367.77 90.55c9.419 11.91 22.69 22.36 39.44 31.059a148.408 148.408 0 0 0 22.42 9.491l2.349.719.021.011 2.33-.721a.768.768 0 0 0 .16-.049 154.41 154.41 0 0 0 38.03-18.831c11.25-7.719 20.27-16.429 26.81-25.879a72.024 72.024 0 0 0 9.16-18.09 67.322 67.322 0 0 0 3.51-21.6 45.866 45.866 0 0 0 -13.73-32.81 46.881 46.881 0 0 0 -66.27.21 46.749 46.749 0 0 0 -33.23-13.8c-1.53 0-3.041.07-4.51.21a8 8 0 1 0 1.52 15.93c1.01-.089 2.02-.139 2.99-.139a30.875 30.875 0 0 1 25.43 13.359 9.459 9.459 0 0 0 7.71 4.1l.09-.01.08.01a9.5 9.5 0 0 0 7.69-4.06l.03-.04a30.946 30.946 0 0 1 47.21-4.431 30.076 30.076 0 0 1 8.99 21.471 52.722 52.722 0 0 1 -9.83 30.6c-9.521 13.86-24.37 23.59-35.15 29.309a149.319 149.319 0 0 1 -15.3 7.061c-1.25.49-2.5.96-3.73 1.39a142.675 142.675 0 0 1 -30.73-15.491 90.436 90.436 0 0 1 -21.5-19.63c-6.531-8.54-10.26-17.4-11.4-27.069a8.006 8.006 0 0 0 -7.939-7.07 7.43 7.43 0 0 0 -.941.059 7.976 7.976 0 0 0 -7.009 8.87c1.489 12.831 6.638 24.901 15.299 35.861z"/><path d="m362.97 29.88a8.009 8.009 0 0 0 11.2-1.481l.019-.019a8 8 0 0 0 -6.359-12.86 7.917 7.917 0 0 0 -6.27 3.03l-.09.11a8.019 8.019 0 0 0 1.5 11.22z"/><path d="m484.615 152.262a27.44 27.44 0 0 0 -16.615 5.6 27.405 27.405 0 0 0 -44 21.6c0 32.975 39.967 45.533 41.668 46.052l2.332.711 2.332-.711c1.701-.514 41.668-13.077 41.668-46.052a27.324 27.324 0 0 0 -27.385-27.2zm-16.63 57.116c-7.121-2.719-27.985-12.2-27.985-29.916a11.306 11.306 0 0 1 11.385-11.2 11.423 11.423 0 0 1 9.418 4.943 8.736 8.736 0 0 0 14.393 0 11.425 11.425 0 0 1 9.419-4.944 11.306 11.306 0 0 1 11.385 11.201c0 17.615-20.922 27.18-28.015 29.916z"/><path d="m220.615 351.262a27.44 27.44 0 0 0 -16.615 5.6 27.405 27.405 0 0 0 -44 21.6c0 32.975 39.967 45.533 41.668 46.052l2.332.711 2.332-.711c1.701-.514 41.668-13.077 41.668-46.052a27.324 27.324 0 0 0 -27.385-27.2zm-16.63 57.116c-7.121-2.719-27.985-12.2-27.985-29.916a11.306 11.306 0 0 1 11.385-11.2 11.423 11.423 0 0 1 9.418 4.943 8.736 8.736 0 0 0 14.393 0 11.425 11.425 0 0 1 9.419-4.944 11.306 11.306 0 0 1 11.385 11.201c0 17.615-20.922 27.18-28.015 29.916z"/><path d="m128.9 387.66a45.99 45.99 0 0 0 -50.4 9.85 45.871 45.871 0 0 0 -22.42-12.33 8 8 0 1 0 -3.5 15.61 29.847 29.847 0 0 1 18.14 12.279 9.479 9.479 0 0 0 7.7 4.091l.08-.011.08.011a9.467 9.467 0 0 0 7.69-4.08 30.13 30.13 0 0 1 45.98-4.32 29.294 29.294 0 0 1 8.75 20.9 51.47 51.47 0 0 1 -9.6 29.86c-9.3 13.549-23.819 23.06-34.359 28.65a146.089 146.089 0 0 1 -14.96 6.91c-1.25.489-2.46.94-3.59 1.34a138.178 138.178 0 0 1 -32.261-16.691c-9.029-6.4-16.149-13.469-21.179-21a51.317 51.317 0 0 1 -9.051-29.069c0-.98.05-1.98.149-2.99a8 8 0 0 0 -7.159-8.77c-.27-.019-.54-.04-.81-.04a7.975 7.975 0 0 0 -7.951 7.2c-.149 1.509-.229 3.06-.229 4.6a65.965 65.965 0 0 0 3.45 21.2 70.834 70.834 0 0 0 8.98 17.761c8.98 12.93 22.429 24.26 40 33.67a147.029 147.029 0 0 0 23.71 10.209l2.339.72.021.009 2.33-.719a.794.794 0 0 0 .149-.05 150.989 150.989 0 0 0 37.291-18.46c11.04-7.57 19.879-16.11 26.3-25.38a70.8 70.8 0 0 0 8.981-17.761 65.992 65.992 0 0 0 3.45-21.2 45.128 45.128 0 0 0 -13.49-32.25 45.676 45.676 0 0 0 -14.611-9.749z"/><path d="m23.87 407.08a7.984 7.984 0 1 0 -6.53-3.36 7.987 7.987 0 0 0 6.53 3.36z"/></svg>