<?xml version="1.0" encoding="iso-8859-1"?>
<!-- Generator: Adobe Illustrator 19.0.0, SVG Export Plug-In . SVG Version: 6.00 Build 0)  -->
<svg version="1.1" id="Capa_1" xmlns="http://www.w3.org/2000/svg" xmlns:xlink="http://www.w3.org/1999/xlink" x="0px" y="0px"
	 viewBox="0 0 512 512" style="enable-background:new 0 0 512 512;" xml:space="preserve">
<path style="fill:#EB7937;" d="M256,0C114.617,0,0,114.617,0,256s114.617,256,256,256s256-114.617,256-256S397.383,0,256,0z
	 M256,353.103c-53.628,0-97.103-43.476-97.103-97.103s43.476-97.103,97.103-97.103s97.103,43.476,97.103,97.103
	S309.628,353.103,256,353.103z"/>
<g>
	<path style="fill:#F7B563;" d="M459.034,247.172L459.034,247.172c-4.882,0-8.828-3.955-8.828-8.828
		c0.018-41.622-10.708-76.491-33.739-109.727c-2.772-4.008-1.774-9.507,2.225-12.279c4.017-2.781,9.507-1.774,12.288,2.225
		c25.185,36.334,36.899,74.399,36.882,119.782C467.862,243.226,463.907,247.172,459.034,247.172z"/>
	<path style="fill:#F7B563;" d="M361.922,70.621c-1.739,0-3.487-0.512-5.023-1.571c-33.209-23.014-68.07-33.739-109.7-33.739
		c-0.009,0-0.018,0-0.026,0c-4.873,0-8.828-3.955-8.828-8.828s3.955-8.828,8.828-8.828c0.009,0,0.018,0,0.026,0
		c45.4,0,83.447,11.723,119.764,36.882c4.008,2.772,5.005,8.28,2.225,12.288C367.475,69.297,364.721,70.621,361.922,70.621z"/>
	<path style="fill:#F7B563;" d="M41.313,297.481c-3.972,0-7.592-2.701-8.572-6.735c-4.149-17.028-6.25-34.657-6.259-52.401
		c0-4.873,3.946-8.828,8.828-8.828l0,0c4.873,0,8.828,3.946,8.828,8.828c0.009,16.34,1.942,32.556,5.756,48.225
		c1.156,4.74-1.748,9.516-6.488,10.664C42.708,297.401,42.002,297.481,41.313,297.481z"/>
	<path style="fill:#F7B563;" d="M141.233,432.552c-1.492,0-3.01-0.38-4.396-1.174c-32.794-18.865-62.914-48.984-82.662-82.635
		c-2.472-4.202-1.059-9.613,3.143-12.076c4.211-2.472,9.613-1.059,12.085,3.143c18.238,31.082,46.018,58.88,76.235,76.262
		c4.228,2.428,5.676,7.83,3.249,12.05C147.262,430.963,144.287,432.552,141.233,432.552z"/>
	<path style="fill:#F7B563;" d="M247.172,459.034L247.172,459.034c-18.397,0-39.601-5.252-55.084-9.084
		c-4.732-1.174-7.618-5.959-6.444-10.69c1.174-4.732,5.967-7.618,10.69-6.444c14.601,3.61,34.595,8.563,50.838,8.563
		c4.873,0,8.828,3.955,8.828,8.828C256,455.08,252.045,459.034,247.172,459.034z"/>
</g>
<path style="fill:#3D6F44;" d="M141.241,88.276c-2.26,0-4.52-0.865-6.241-2.586c-3.452-3.452-3.452-9.031,0-12.482l8.828-8.828
	c3.443-3.452,9.039-3.452,12.482,0c3.452,3.452,3.452,9.031,0,12.482l-8.828,8.828C145.761,87.411,143.501,88.276,141.241,88.276z"
	/>
<path style="fill:#EBBA16;" d="M97.103,256c-2.26,0-4.52-0.865-6.241-2.586c-3.452-3.452-3.452-9.031,0-12.482l8.828-8.828
	c3.443-3.452,9.039-3.452,12.482,0c3.452,3.452,3.452,9.031,0,12.482l-8.828,8.828C101.623,255.135,99.363,256,97.103,256z"/>
<path style="fill:#7383BF;" d="M308.966,97.103c-2.26,0-4.52-0.865-6.241-2.586c-3.452-3.452-3.452-9.031,0-12.482l8.828-8.828
	c3.443-3.452,9.039-3.452,12.482,0c3.452,3.452,3.452,9.031,0,12.482l-8.828,8.828C313.485,96.238,311.225,97.103,308.966,97.103z"
	/>
<path style="fill:#FC3952;" d="M397.241,229.517c-2.26,0-4.52-0.865-6.241-2.586c-3.452-3.452-3.452-9.031,0-12.482l8.828-8.828
	c3.443-3.452,9.039-3.452,12.482,0c3.452,3.452,3.452,9.031,0,12.482l-8.828,8.828C401.761,228.652,399.501,229.517,397.241,229.517
	z"/>
<path style="fill:#EBBA16;" d="M441.379,308.966c-2.26,0-4.52-0.865-6.241-2.586c-3.452-3.452-3.452-9.031,0-12.482l8.828-8.828
	c3.443-3.452,9.039-3.452,12.482,0c3.452,3.452,3.452,9.031,0,12.482l-8.828,8.828C445.899,308.1,443.639,308.966,441.379,308.966z"
	/>
<path style="fill:#3D6F44;" d="M317.793,432.552c-2.26,0-4.52-0.865-6.241-2.586c-3.452-3.452-3.452-9.031,0-12.482l8.828-8.828
	c3.443-3.452,9.039-3.452,12.482,0c3.452,3.452,3.452,9.031,0,12.482l-8.828,8.828C322.313,431.687,320.053,432.552,317.793,432.552
	z"/>
<path style="fill:#CB465F;" d="M79.448,158.897c-2.26,0-4.52-0.865-6.241-2.586l-8.828-8.828c-3.452-3.452-3.452-9.031,0-12.482
	c3.443-3.452,9.039-3.452,12.482,0l8.828,8.828c3.452,3.452,3.452,9.031,0,12.482C83.968,158.031,81.708,158.897,79.448,158.897z"/>
<path style="fill:#366DB6;" d="M238.345,114.759c-2.26,0-4.52-0.865-6.241-2.586l-8.828-8.828c-3.452-3.452-3.452-9.031,0-12.482
	c3.443-3.452,9.039-3.452,12.482,0l8.828,8.828c3.452,3.452,3.452,9.031,0,12.482C242.865,113.894,240.605,114.759,238.345,114.759z
	"/>
<path style="fill:#23A24D;" d="M370.759,150.069c-2.26,0-4.52-0.865-6.241-2.586l-8.828-8.828c-3.452-3.452-3.452-9.031,0-12.482
	c3.443-3.452,9.039-3.452,12.482,0L377,135c3.452,3.452,3.452,9.031,0,12.482C375.278,149.204,373.018,150.069,370.759,150.069z"/>
<path style="fill:#C5411E;" d="M370.759,361.931c-2.26,0-4.52-0.865-6.241-2.586l-8.828-8.828c-3.452-3.452-3.452-9.031,0-12.482
	c3.443-3.452,9.039-3.452,12.482,0l8.828,8.828c3.452,3.452,3.452,9.031,0,12.482C375.278,361.066,373.018,361.931,370.759,361.931z
	"/>
<path style="fill:#DD352E;" d="M141.241,361.931c-2.26,0-4.52-0.865-6.241-2.586l-8.828-8.828c-3.452-3.452-3.452-9.031,0-12.482
	c3.443-3.452,9.039-3.452,12.482,0l8.828,8.828c3.452,3.452,3.452,9.031,0,12.482C145.761,361.066,143.501,361.931,141.241,361.931z
	"/>
<g>
</g>
<g>
</g>
<g>
</g>
<g>
</g>
<g>
</g>
<g>
</g>
<g>
</g>
<g>
</g>
<g>
</g>
<g>
</g>
<g>
</g>
<g>
</g>
<g>
</g>
<g>
</g>
<g>
</g>
</svg>
