<svg height="512pt" viewBox="0 -34 512 512" width="512pt" xmlns="http://www.w3.org/2000/svg"><path d="m250.175781 436.988281-51.898437-107.125c63.441406-25.65625 115.457031 0 115.457031 0h112.214844c12.578125 10.722657 51.898437 48.886719 51.898437 107.125zm0 0" fill="#fadc60"/><path d="m413 50.660156c0 23.835938-19.324219 43.160156-43.160156 43.160156-23.835938 0-43.160156-19.324218-43.160156-43.160156 0-23.835937 19.324218-43.160156 43.160156-43.160156 23.835937 0 43.160156 19.324219 43.160156 43.160156zm0 0" fill="#323e40"/><path d="m403.167969 342.320312c0 18.40625-14.921875 33.324219-33.328125 33.324219s-33.328125-14.917969-33.328125-33.324219 14.921875-33.328124 33.328125-33.328124 33.328125 14.921874 33.328125 33.328124zm0 0" fill="#e3b098"/><path d="m432.46875 318.933594s-23.835938 27.59375 0 44.453125c11.394531 8.058593 21.667969 4.769531 29.289062-.855469 12.210938-9.015625 16.964844-25.300781 10.382813-38.976562-3.257813-6.777344-9.316406-13.082032-20.351563-15.90625zm0 0" fill="#e3b098"/><path d="m504.5 204.992188c0 75.847656-60.289062 137.328124-134.660156 137.328124-74.378906 0-134.667969-61.480468-134.667969-137.328124l15.003906-33.785157 95.492188-77.386719h24.171875l48.492187 5.386719 72 68zm0 0" fill="#fbc4ac"/><path d="m504.5 204.992188s-31.5-31.121094-72.871094-49.121094c-41.378906-18-61.789062-44.660156-61.789062-44.660156s-20.410156 26.660156-61.789063 44.660156c-41.371093 18-72.871093 49.121094-72.871093 49.121094h-.007813v-.011719c.007813-75.847657 60.289063-137.320313 134.667969-137.320313 74.371094 0 134.660156 61.480469 134.660156 137.332032zm0 0" fill="#3a484a"/><path d="m451.125 253.488281h-19.011719c-4.140625 0-7.5-3.355469-7.5-7.5 0-4.140625 3.359375-7.5 7.5-7.5h19.011719c4.144531 0 7.5 3.359375 7.5 7.5 0 4.144531-3.355469 7.5-7.5 7.5zm0 0" fill="#f98084"/><path d="m307.554688 253.488281h-19.011719c-4.140625 0-7.5-3.355469-7.5-7.5 0-4.140625 3.359375-7.5 7.5-7.5h19.011719c4.144531 0 7.5 3.359375 7.5 7.5 0 4.144531-3.355469 7.5-7.5 7.5zm0 0" fill="#f98084"/><path d="m250.175781 436.988281c0-58.238281-39.316406-96.402343-51.898437-107.125h-112.214844c-12.582031 10.722657-51.898438 48.886719-51.898438 107.125zm0 0" fill="#58b78c"/><path d="m175.496094 342.320312c0 18.40625-14.921875 33.324219-33.324219 33.324219-18.40625 0-33.328125-14.917969-33.328125-33.324219s14.921875-33.328124 33.328125-33.328124c18.402344 0 33.324219 14.921874 33.324219 33.328124zm0 0" fill="#d9a891"/><path d="m79.542969 318.933594s23.835937 27.59375 0 44.453125c-11.394531 8.058593-21.671875 4.769531-29.292969-.855469-12.207031-9.015625-16.960938-25.300781-10.382812-38.976562 3.261718-6.777344 9.316406-13.082032 20.355468-15.90625zm0 0" fill="#fbc4ac"/><path d="m276.820312 203.761719v.289062c.007813.148438.019532.308594.007813.46875v.472657c0 75.847656-60.289063 137.328124-134.65625 137.328124-74.382813 0-134.671875-61.480468-134.671875-137.328124h.011719l29.390625-55.785157 53.234375-46 108.140625 8.003907 70.058594 59.328124zm0 0" fill="#e3b098"/><path d="m223.457031 253.488281h-19.011719c-4.144531 0-7.5-3.355469-7.5-7.5 0-4.140625 3.355469-7.5 7.5-7.5h19.011719c4.140625 0 7.5 3.359375 7.5 7.5 0 4.144531-3.359375 7.5-7.5 7.5zm0 0" fill="#f98084"/><path d="m79.886719 253.488281h-19.011719c-4.144531 0-7.5-3.355469-7.5-7.5 0-4.140625 3.355469-7.5 7.5-7.5h19.011719c4.140625 0 7.5 3.359375 7.5 7.5 0 4.144531-3.359375 7.5-7.5 7.5zm0 0" fill="#f98084"/><path d="m276.820312 203.761719c-1.929687-51.300781-125.242187-27.820313-175.648437-71.421875-4.371094-3.777344-11.222656-1.878906-13.140625 3.582031-8.25 23.347656-30.75 69.070313-80.519531 69.070313h-.011719c0-75.851563 60.289062-137.332032 134.671875-137.332032 73.96875 0 134.007813 60.820313 134.648437 136.101563zm0 0" fill="#fadc60"/><path d="m441.621094 232.972656c4.140625 0 7.5-3.355468 7.5-7.5v-13.957031c0-4.140625-3.359375-7.5-7.5-7.5-4.144532 0-7.5 3.359375-7.5 7.5v13.957031c0 4.140625 3.355468 7.5 7.5 7.5zm0 0"/><path d="m298.050781 232.972656c4.140625 0 7.5-3.355468 7.5-7.5v-13.957031c0-4.140625-3.359375-7.5-7.5-7.5-4.144531 0-7.5 3.359375-7.5 7.5v13.957031c0 4.140625 3.355469 7.5 7.5 7.5zm0 0"/><path d="m362.644531 234.585938c-2.730469-3.121094-7.464843-3.4375-10.585937-.714844-3.117188 2.726562-3.4375 7.464844-.710938 10.585937 4.582032 5.238281 11.320313 8.242188 18.488282 8.242188 7.167968 0 13.90625-3.003907 18.484374-8.242188 2.726563-3.121093 2.410157-7.859375-.710937-10.585937-3.117187-2.722656-7.855469-2.40625-10.582031.714844-1.730469 1.976562-4.351563 3.113281-7.191406 3.113281-2.839844 0-5.460938-1.136719-7.191407-3.113281zm0 0"/><path d="m213.949219 232.972656c4.144531 0 7.5-3.355468 7.5-7.5v-13.957031c0-4.140625-3.355469-7.5-7.5-7.5-4.140625 0-7.5 3.359375-7.5 7.5v13.957031c0 4.140625 3.359375 7.5 7.5 7.5zm0 0"/><path d="m70.378906 232.972656c4.144532 0 7.5-3.355468 7.5-7.5v-13.957031c0-4.140625-3.355468-7.5-7.5-7.5-4.140625 0-7.5 3.359375-7.5 7.5v13.957031c0 4.140625 3.359375 7.5 7.5 7.5zm0 0"/><path d="m142.164062 252.699219c7.167969 0 13.90625-3.003907 18.488282-8.242188 2.726562-3.121093 2.40625-7.859375-.710938-10.585937-3.121094-2.722656-7.855468-2.40625-10.585937.714844-1.730469 1.976562-4.351563 3.113281-7.191407 3.113281-2.839843 0-5.460937-1.132813-7.191406-3.113281-2.726562-3.121094-7.464844-3.4375-10.582031-.714844-3.121094 2.726562-3.4375 7.464844-.710937 10.585937 4.578124 5.238281 11.316406 8.242188 18.484374 8.242188zm0 0"/><path d="m42.542969 308.203125c-3.949219 3.257813-7.117188 7.289063-9.433594 12.097656-7.894531 16.410157-2.796875 36.386719 12.09375 47.804688-12.292969 21.785156-18.539063 44.917969-18.539063 68.882812 0 4.144531 3.355469 7.5 7.5 7.5h443.683594c4.140625 0 7.5-3.355469 7.5-7.5 0-23.964843-6.246094-47.101562-18.539062-68.882812 14.886718-11.417969 19.988281-31.394531 12.089844-47.804688-2.3125-4.8125-5.488282-8.839843-9.4375-12.097656 26.238281-26.292969 42.539062-62.847656 42.539062-103.210937 0-25.34375-6.519531-50.289063-18.859375-72.132813-2.035156-3.605469-6.613281-4.878906-10.21875-2.84375-3.605469 2.039063-4.878906 6.613281-2.84375 10.21875 8.183594 14.488281 13.515625 30.503906 15.738281 47.066406-.160156-.132812-.339844-.277343-.503906-.410156-13.503906-11.023437-27.90625-20.96875-43.21875-29.320313-5.695312-3.105468-11.523438-5.988281-17.472656-8.578124-38.902344-16.921876-58.640625-42.101563-58.824219-42.339844-1.421875-1.855469-3.621094-2.941406-5.957031-2.941406-2.261719 0-4.386719 1.023437-5.808594 2.769531-.042969.054687-.09375.105469-.136719.160156-.195312.25-19.933593 25.429687-58.835937 42.351563-9.183594 3.996093-18.214844 8.613281-26.726563 13.898437-.023437.015625-.046875.027344-.070312.042969-3.234375-10.914063-7.730469-21.378906-13.414063-31.214844 16.960938-25.328125 41.628906-43.292969 69.730469-51.515625 14.949219-4.375 30.71875-5.933594 46.234375-4.546875 31.617188 2.816406 61.378906 17.699219 82.949219 41.8125 2.757812 3.085938 7.5 3.347656 10.589843.589844 3.085938-2.761719 3.351563-7.503906.589844-10.59375-15.910156-17.785156-35.816406-31.082032-57.683594-38.976563 2.132813-5.667969 3.242188-11.707031 3.242188-17.828125 0-27.933594-22.726562-50.660156-50.660156-50.660156s-50.660156 22.726562-50.660156 50.660156c0 6.089844 1.101562 12.09375 3.207031 17.738282-26.210938 9.40625-49.316407 26.566406-66.367188 49.816406-4.140625-5.617188-8.710937-10.96875-13.691406-16.007813-26.808594-27.113281-62.378906-42.046875-100.15625-42.046875-36.101563 0-70.519531 13.808594-96.917969 38.878906-3.003906 2.851563-3.128906 7.597657-.277344 10.601563 2.855469 3.003906 7.601563 3.125 10.605469.273437 23.597657-22.410156 54.351563-34.753906 86.589844-34.753906 33.738281 0 65.519531 13.351563 89.488281 37.59375 6.835938 6.914063 12.796875 14.496094 17.851563 22.582032.042969.074218.070312.148437.117187.222656 7.351563 11.832031 12.699219 24.695312 15.96875 38.242187-10.394531-6.261719-24.367187-10.0625-40.316406-13.113281-8.96875-1.722656-17.992188-3.101562-27.011719-4.519531-31.113281-4.847657-67.304687-7.976563-92.191406-29.5-8.25-7.132813-21.507813-3.460938-25.117187 6.753906-4.402344 12.453125-10.234376 24.585937-18.300782 35.097656-7.203125 9.386719-16.230468 17.402344-26.941406 22.550781-6.433594 3.09375-13.371094 5.113282-20.480469 5.960938 1.390625-23.46875 8.917969-45.921875 21.984375-65.371094 2.308594-3.4375 1.394532-8.097656-2.046875-10.40625-3.4375-2.3125-8.097656-1.398437-10.40625 2.042969-16.207031 24.121094-24.769531 52.371094-24.769531 81.695313 0 40.367187 16.300781 76.921874 42.542969 103.210937zm291.636719-257.542969c0-19.664062 15.996093-35.660156 35.660156-35.660156 19.664062 0 35.660156 15.996094 35.660156 35.660156 0 4.632813-.898438 9.195313-2.621094 13.4375-4.738281-1.152344-9.550781-2.03125-14.394531-2.675781-6.183594-.824219-12.40625-1.261719-18.644531-1.261719-11.289063 0-22.359375 1.355469-33.039063 3.929688-1.722656-4.238282-2.621093-8.800782-2.621093-13.429688zm-78.210938 241.039063c5.394531 7.363281 11.394531 14.117187 17.910156 20.207031-5.4375-.589844-11.28125-.945312-17.472656-.945312-6.230469 0-12.429688.367187-18.589844 1.085937 6.660156-6.183594 12.742188-12.996094 18.152344-20.347656zm91.191406 56.296875c9.992188 1.632812 20.152344 2.152344 30.261719 1.617187 5.976563-.316406 11.886719-1.003906 17.710937-2.070312-2.421874 11.746093-12.84375 20.601562-25.292968 20.601562-12.457032 0-22.878906-8.863281-25.296875-20.613281.871093.160156 1.742187.320312 2.617187.464844zm-212.570312 1.617187c3.824218.203125 7.660156.253907 11.492187.148438 7.230469-.195313 14.367188-.941407 21.382813-2.222657-2.417969 11.746094-12.84375 20.605469-25.292969 20.605469-12.453125 0-22.875-8.855469-25.296875-20.601562 5.828125 1.066406 11.738281 1.753906 17.714844 2.070312zm-87.960938-22.808593c1.683594-3.5 4.054688-6.257813 7.195313-8.339844 8.355469 6.761718 17.40625 12.53125 26.992187 17.210937.011719.03125.027344.0625.039063.097657 1.1875 3.117187 2 6.429687 1.746093 9.789062-.605468 7.945312-9.105468 15.140625-16.941406 15.140625-4.007812 0-7.796875-1.875-10.953125-4.207031-9.5625-7.058594-12.960937-19.546875-8.078125-29.691406zm11.984375 48.019531c.582031.144531 1.164063.269531 1.746094.375 7.40625 1.398437 14.910156-.363281 21.292969-4.238281 5.957031-3.617188 11.121094-8.890626 13.777344-15.410157 1.640624-4.03125 2.34375-8.402343 2.140624-12.75-.003906-.082031-.003906-.167969-.007812-.25 1.265625.425781 2.542969.828125 3.816406 1.21875.769532 21.839844 18.765625 39.375 40.792969 39.375 22.023437 0 40.019531-17.535156 40.789063-39.375 4.71875-1.441406 9.375-3.132812 13.953124-5.085937.070313.0625.132813.121094.203126.1875 9.730468 9 18.316406 19.292968 25.332031 30.542968 6.984375 11.207032 12.589843 23.300782 16.007812 36.082032 2.101563 7.851562 3.453125 15.878906 3.960938 23.992187h-30.957031v-29c0-4.140625-3.359376-7.5-7.5-7.5-4.144532 0-7.5 3.359375-7.5 7.5v29h-108.582032v-29c0-4.140625-3.355468-7.5-7.5-7.5-4.140625 0-7.5 3.359375-7.5 7.5v29h-30.984375c1.167969-18.914062 6.777344-37.253906 16.71875-54.664062zm380.511719 54.664062v-29c0-4.140625-3.359375-7.5-7.5-7.5s-7.5 3.359375-7.5 7.5v29h-166.65625c-.007812-.117187-.019531-.234375-.023438-.351562-.863281-14.800781-4.242187-29.363281-9.726562-43.125-4.972656-12.460938-11.734375-24.210938-19.722656-34.980469-4.726563-6.371094-9.886719-12.421875-15.453125-18.078125-.058594-.058594-.121094-.125-.183594-.1875 14.335937-4.519531 29.101563-6.804687 44.046875-6.804687 26.628906 0 46.328125 7.355468 52.195312 9.828124 6.582032 3.195313 13.417969 5.871094 20.449219 8 .777344 21.832032 18.769531 39.355469 40.789063 39.355469 22.023437 0 40.019531-17.535156 40.789062-39.375 1.277344-.390625 2.550782-.792969 3.816406-1.222656-.003906.078125 0 .152344-.003906.230469-.195312 4.109375.402344 8.277344 1.878906 12.121094 2.292969 5.980468 6.628907 10.941406 11.816407 14.613281 7.367187 5.210937 16.390625 7.535156 25.257812 5.3125 9.941407 17.414062 15.550781 35.75 16.71875 54.667969h-30.988281zm18.179688-72.992187c-5.746094 4.242187-12.734376 5.558594-19.070313 1.703125-3.128906-1.902344-6.070313-4.496094-7.617187-7.878907-2.125-4.640624-1.21875-9.933593.53125-14.53125.015624-.039062.03125-.078124.046874-.117187 9.582032-4.679687 18.632813-10.449219 26.988282-17.210937 3.140625 2.085937 5.515625 4.839843 7.199218 8.34375 4.882813 10.144531 1.484376 22.632812-8.078124 29.691406zm-28.667969-193.75c10.367187 4.511718 20.308593 9.96875 29.847656 16.027344 13.558594 8.613281 26.5 18.386718 38.320313 29.273437.046874.042969.101562.09375.15625.140625-1.433594 60.070312-43.023438 110.15625-98.34375 123.273438-27.816407 6.546874-57.832032 3.28125-83.542969-9.226563-19.957031-9.703125-37.339844-24.714844-50.246094-44 4.316406-7.484375 7.921875-15.328125 10.832031-23.417969.027344-.074218.054688-.152344.082032-.226562 7.289062-20.183594 9.976562-42.089844 7.9375-63.441406-.011719-.109376-.023438-.21875-.03125-.328126-.402344-4.214843-.972657-8.394531-1.726563-12.523437 9.320313-5.867187 19.019531-11.152344 29.121094-15.546875 30.257812-13.164062 49.722656-30.703125 58.796875-40.203125 9.078125 9.5 28.539062 27.039063 58.796875 40.199219zm-412.835938 49.351562c7.890625-.777344 15.683594-2.699218 22.988281-5.789062 11.582032-4.902344 21.761719-12.757813 30.132813-22.085938 13.628906-15.1875 21.757813-33.289062 26.183594-45.8125.046875-.128906.117187-.230468.203125-.316406.019531-.019531.042968-.023438.0625-.039062.078125-.0625.164062-.109376.269531-.140626.027344-.007812.054687-.019531.082031-.023437.0625-.011719.121094-.023437.167969-.023437.082031 0 .140625.015624.199219.039062.015625.003906.023437.011719.039062.019531.046875.023438.09375.050781.136719.089844 24.59375 21.273437 64.488281 27.492187 99.683594 32.980469 18.417969 2.875 38.136719 5.03125 55.4375 12.402344 8.9375 3.816406 17.945312 10.453124 17.945312 21.34375v.25c0 14.085937-2.238281 28.234374-6.695312 41.601562-13.953125 42.007812-48.4375 74.425781-91.191407 84.75-18.050781 4.359375-37.125 4.601562-55.289062.738281-55.46875-11.820312-97.792969-60.636719-100.964844-119.929687.203125-.015625.40625-.035156.609375-.054688zm0 0"/></svg>