<svg height="512pt" viewBox="0 0 512 512" width="512pt" xmlns="http://www.w3.org/2000/svg"><path d="m391 136v60c0 8.398438-6.597656 15-15 15s-15-6.601562-15-15v-60c0-57.898438-47.101562-106-105-106s-105 48.101562-105 106v60c0 8.398438-6.597656 15-15 15s-15-6.601562-15-15v-60c0-74.402344 60.601562-136 135-136s135 61.597656 135 136zm0 0" fill="#725d57"/><path d="m391 136v60c0 8.398438-6.597656 15-15 15s-15-6.601562-15-15v-60c0-57.898438-47.101562-106-105-106v-30c74.398438 0 135 61.597656 135 136zm0 0" fill="#53433f"/><path d="m512 374.800781c0 75-62.199219 137.199219-137.199219 137.199219h-237.601562c-75 0-137.199219-62.199219-137.199219-137.199219 0-21.300781 5.097656-42.300781 14.398438-61.203125l48.101562-94.199218h387l48.101562 94.199218c9.300782 18.902344 14.398438 39.902344 14.398438 61.203125zm0 0" fill="#e63950"/><path d="m512 374.800781c0 75-62.199219 137.199219-137.199219 137.199219h-118.800781v-292.601562h193.5l48.101562 94.199218c9.300782 18.902344 14.398438 39.902344 14.398438 61.203125zm0 0" fill="#d20041"/><path d="m451 196v30c0 107.699219-87.300781 195-195 195s-195-87.300781-195-195v-30c0-8.402344 6.597656-15 15-15h360c8.402344 0 15 6.597656 15 15zm0 0" fill="#ff637b"/><path d="m451 196v30c0 107.699219-87.300781 195-195 195v-240h180c8.402344 0 15 6.597656 15 15zm0 0" fill="#ff3f5c"/><path d="m391 256c0 8.285156-6.714844 15-15 15s-15-6.714844-15-15 6.714844-15 15-15 15 6.714844 15 15zm0 0" fill="#d20041"/><path d="m151 256c0 8.285156-6.714844 15-15 15s-15-6.714844-15-15 6.714844-15 15-15 15 6.714844 15 15zm0 0" fill="#e63950"/><path d="m301 346v60c0 24.898438-20.097656 45-45 45s-45-20.101562-45-45v-60zm0 0" fill="#ffe1ba"/><path d="m256 346h45v60c0 24.898438-20.097656 45-45 45zm0 0" fill="#ffc473"/><path d="m256 301c-24.902344 0-45 20.097656-45 45 0 24.898438 20.097656 45 45 45s45-20.101562 45-45c0-24.902344-20.097656-45-45-45zm0 0" fill="#fff4ca"/><path d="m301 346c0 24.898438-20.097656 45-45 45v-90c24.902344 0 45 20.097656 45 45zm0 0" fill="#ffe1ba"/></svg>