<?xml version="1.0" encoding="iso-8859-1"?>
<!-- Generator: Adobe Illustrator 19.0.0, SVG Export Plug-In . SVG Version: 6.00 Build 0)  -->
<svg version="1.1" id="Capa_1" xmlns="http://www.w3.org/2000/svg" xmlns:xlink="http://www.w3.org/1999/xlink" x="0px" y="0px"
	 viewBox="0 0 512 512" style="enable-background:new 0 0 512 512;" xml:space="preserve">
<path style="fill:#EDA751;" d="M172.877,419.6c-8.179,0.001-16.676-1.698-25.576-5.089c-41.622-15.855-78.379-17.88-98.325-5.412
	c-7.021,4.389-16.275,2.255-20.665-4.769c-4.389-7.023-2.255-16.275,4.769-20.665c28.277-17.674,73.801-16.646,124.897,2.818
	c25.08,9.554,37.316-3.644,60.456-31.98l0.852-1.043c5.24-6.414,14.687-7.366,21.1-2.126c6.414,5.24,7.366,14.687,2.126,21.1
	l-0.848,1.038c-11.666,14.286-22.684,27.778-36.903,36.634C194.589,416.441,184.029,419.6,172.877,419.6z"/>
<path style="opacity:0.2;fill:#A35F00;enable-background:new    ;" d="M240.384,351.335c-6.414-5.239-15.861-4.287-21.1,2.126
	l-0.852,1.043c-19.629,24.036-31.414,37.172-49.846,34.776c-1.02,8.651-0.77,21.712,3.736,30.304
	c0.184,0.002,0.371,0.014,0.555,0.014c11.153-0.001,21.712-3.16,31.881-9.492c14.219-8.856,25.237-22.348,36.903-36.634l0.848-1.038
	C247.749,366.023,246.797,356.575,240.384,351.335z"/>
<path style="fill:#FCD79D;" d="M56.347,374.162c-8.644,2.091-16.46,5.25-23.267,9.505c-7.024,4.39-9.158,13.642-4.769,20.665
	c4.39,7.024,13.644,9.158,20.665,4.769c4.917-3.074,10.86-5.262,17.642-6.585C66.581,389.766,62.219,380.358,56.347,374.162z"/>
<g>
	<path style="fill:#EDA751;" d="M383.896,491.878c-2.654,0-5.353-0.443-7.997-1.378c-12.494-4.417-19.041-18.125-14.625-30.618
		c4.158-11.762,0.622-28.329-8.226-38.538c-4.792-5.529-9.865-7.803-15.078-6.761c-12.987,2.597-25.632-5.831-28.229-18.827
		c-2.597-12.995,5.833-25.632,18.827-28.229c22.397-4.473,44.534,3.686,60.744,22.388c20.221,23.33,27.134,57.875,17.206,85.96
		C403.035,485.724,393.779,491.878,383.896,491.878z"/>
	<path style="fill:#EDA751;" d="M229.108,504.5c-7.875,0-15.588-3.872-20.178-10.979c-29.438-45.582-9.094-77.767,1.836-95.059
		c2.03-3.211,3.947-6.244,5.158-8.666c5.927-11.852,20.339-16.654,32.19-10.73c11.852,5.926,16.656,20.338,10.73,32.19
		c-2.286,4.571-4.945,8.777-7.516,12.846c-9.915,15.686-14.892,23.559-2.088,43.385c7.189,11.132,3.993,25.983-7.138,33.172
		C238.079,503.258,233.567,504.5,229.108,504.5z"/>
	<path style="fill:#EDA751;" d="M176.162,355.605c-16.706,1.117-34.831-1.576-53.093-8.051
		c-26.133-9.265-48.95-25.241-61.037-42.735c-7.532-10.903-4.8-25.846,6.103-33.378c10.906-7.533,25.847-4.799,33.378,6.103
		c12.474,18.055,57.578,38.245,85.472,27.221c12.32-4.876,26.261,1.167,31.134,13.49c4.873,12.323-1.167,26.261-13.49,31.134
		C195.852,352.859,186.266,354.929,176.162,355.605z"/>
</g>
<g>
	<path style="opacity:0.2;fill:#A35F00;enable-background:new    ;" d="M186.984,304.765c-9.039,3.572-19.885,3.853-30.841,2.005
		c-1.978,8.461-3.03,17.243-3.03,26.253c0,7.528,0.733,14.898,2.126,22.054c7.15,0.797,14.154,0.981,20.923,0.528
		c10.104-0.675,19.691-2.746,28.466-6.217c12.323-4.873,18.363-18.812,13.49-31.134
		C213.247,305.932,199.304,299.889,186.984,304.765z"/>
	<path style="opacity:0.2;fill:#A35F00;enable-background:new    ;" d="M248.115,379.066c-11.852-5.924-26.263-1.121-32.19,10.73
		c-1.211,2.422-3.128,5.455-5.158,8.666c-4.188,6.626-9.757,15.442-13.379,26.357c12.785,10.568,27.782,18.824,44.252,24.054
		c-0.665-8.38,3.567-15.088,9.689-24.771c2.572-4.068,5.23-8.275,7.516-12.846C264.771,399.404,259.967,384.993,248.115,379.066z"/>
	<path style="opacity:0.2;fill:#A35F00;enable-background:new    ;" d="M394.386,396.402c-1.586-2.242-3.276-4.411-5.075-6.487
		c-16.21-18.703-38.346-26.861-60.744-22.388c-12.994,2.597-21.422,15.236-18.826,28.229c2.597,12.996,15.243,21.424,28.229,18.827
		c5.214-1.042,10.286,1.232,15.078,6.761c2.655,3.064,4.821,6.706,6.455,10.614C373.482,422.408,385.373,410.316,394.386,396.402z"
		/>
</g>
<ellipse style="fill:#FCD690;" cx="283.194" cy="333.022" rx="110.667" ry="102.828"/>
<path style="opacity:0.15;fill:#C17A00;enable-background:new    ;" d="M235.817,303.17L235.817,303.17
	c-19.26-2.427-37.321-6.434-53.671-12.102c-6.172,12.814-9.619,27.008-9.619,41.956c0,56.793,49.546,102.833,110.664,102.833
	c1.25,0,2.493-0.026,3.733-0.065C204.067,392.941,229.083,332.959,235.817,303.17z"/>
<path style="fill:#EDA751;" d="M215.846,154.713c21.654-18.171,36.113-48.673,5.569-93.765
	C190.629,15.501,144.795,4.11,109.012,8.325c-8.822,1.039-16.224,7.25-18.78,15.758c-10.365,34.507-7.105,81.623,32.306,119.833
	C161.641,181.825,194.191,172.884,215.846,154.713z"/>
<path style="fill:#FF91AB;" d="M88.793,29.363c-8.498,33.928-3.693,78.255,33.746,114.552
	c33.893,32.859,62.857,30.511,84.076,17.473C192.021,62.319,128.272,36.049,88.793,29.363z"/>
<path style="fill:#EDA751;" d="M350.538,154.713c-21.654-18.171-36.112-48.673-5.569-93.765
	c30.785-45.447,76.62-56.839,112.403-52.624c8.822,1.039,16.224,7.25,18.78,15.758c10.366,34.507,7.105,81.623-32.306,119.833
	C404.742,181.825,372.192,172.884,350.538,154.713z"/>
<path style="fill:#FF91AB;" d="M477.592,29.363c8.498,33.928,3.693,78.255-33.746,114.552
	c-33.892,32.859-62.857,30.511-84.076,17.473C374.363,62.319,438.112,36.049,477.592,29.363z"/>
<path style="fill:#FFDC9C;" d="M471.597,182.138c0,86.144-84.352,123.874-188.405,123.874S94.788,268.281,94.788,182.138
	S179.139,26.161,283.192,26.161S471.597,95.994,471.597,182.138z"/>
<path style="opacity:0.15;fill:#C17A00;enable-background:new    ;" d="M94.788,182.138c0,72.597,59.909,110.808,141.03,121.031
	c-111.305-59.681-100.467-186.173-51.315-253.913C130.675,76.715,94.788,125.954,94.788,182.138z"/>
<g>
	<ellipse style="fill:#FF91AB;" cx="190.736" cy="185.775" rx="34.109" ry="27.169"/>
	<ellipse style="fill:#FF91AB;" cx="375.642" cy="185.775" rx="34.109" ry="27.169"/>
	<path style="fill:#FF91AB;" d="M282.267,207.089c-10.291-0.485-18.208-9.349-18.208-19.652v-15.512c0-2.862,1.284-5.595,3.54-7.357
		c4.302-3.359,9.713-5.363,15.594-5.363s11.292,2.003,15.594,5.363c2.256,1.762,3.54,4.495,3.54,7.357v16.053
		C302.325,198.851,293.254,207.606,282.267,207.089z"/>
</g>
<path style="fill:#EDA751;" d="M465.022,204.306c-13.145-1.684-25.161,7.613-26.841,20.757
	c-3.605,28.201-31.463,54.01-53.926,66.002l-0.003,0.002c6.17,12.813,9.605,27.011,9.605,41.956c0,1.428-0.04,2.848-0.102,4.262l0,0
	c35.623-15.429,85.298-53.513,92.025-106.137C487.459,218.004,478.167,205.986,465.022,204.306z"/>
<path style="opacity:0.2;fill:#A35F00;enable-background:new    ;" d="M411.668,328.188c-0.226-24.994-9.71-35.79-3.138-54.29
	c-7.907,7.085-16.42,12.973-24.275,17.167l-0.003,0.002c6.17,12.813,9.605,27.011,9.605,41.956c0,1.428-0.04,2.848-0.102,4.262
	C399.444,334.821,405.493,331.776,411.668,328.188z"/>
<path d="M210.622,132.658c-13.006,0-23.586,10.581-23.586,23.586c0,4.142,3.358,7.5,7.5,7.5c4.142,0,7.5-3.358,7.5-7.5
	c0-4.735,3.852-8.587,8.587-8.587c4.735,0,8.587,3.852,8.587,8.587c0,4.142,3.358,7.5,7.5,7.5c4.142,0,7.5-3.358,7.5-7.5
	C234.207,143.239,223.627,132.658,210.622,132.658z M187.49,198.358c-10.621,2.819-30.662,12.887-38.446,18.633
	c-3.333,2.46-4.04,7.156-1.58,10.488c1.471,1.992,3.74,3.046,6.04,3.046c1.547,0,3.108-0.477,4.448-1.466
	c6.414-4.735,24.764-13.915,33.387-16.204c4.003-1.063,6.387-5.17,5.325-9.173C195.601,199.679,191.493,197.298,187.49,198.358z
	 M486.892,208.84c-2.541-3.286-5.641-5.984-9.132-8.004c0.887-6.046,1.335-12.311,1.335-18.698c0-19.098-3.89-37.681-11.348-55.129
	c20.721-30.964,26.423-69.004,15.586-105.084c-3.422-11.395-13.269-19.657-25.084-21.049c-35.957-4.237-71.347,7.008-97.883,30.91
	c-24.071-8.6-50.21-13.127-77.174-13.127s-53.104,4.526-77.174,13.127c-26.537-23.903-61.93-35.147-97.884-30.911
	C96.319,2.269,86.473,10.53,83.05,21.925c-10.838,36.079-5.134,74.119,15.586,105.084c-7.459,17.448-11.348,36.031-11.348,55.129
	c0,52.546,29.779,91.817,84.802,113.243c-0.645,1.656-1.243,3.324-1.801,5.003c-24.865,0.712-54.373-15.187-62.606-27.103
	c-9.87-14.286-29.522-17.88-43.812-8.01c-14.287,9.871-17.88,29.524-8.01,43.812c12.95,18.745,37.137,35.769,64.7,45.541
	c16.354,5.798,32.47,8.724,48.019,8.723c0.328,0,0.653-0.011,0.98-0.014c1.943,6.343,4.486,12.451,7.558,18.275
	c-4.856,1.035-10.036,0.323-16.474-2.13c-53.312-20.308-101.256-21.099-131.541-2.169c-5.096,3.185-8.647,8.163-9.998,14.018
	c-1.351,5.855-0.341,11.886,2.843,16.981c3.184,5.096,8.163,8.647,14.02,9.998c5.855,1.349,11.886,0.34,16.98-2.844
	c17.697-11.062,52.827-8.74,91.681,6.061c9.72,3.703,19.22,5.579,28.238,5.579h0.008c5.611,0,11.142-0.736,16.562-2.178
	c-5.115,17.478-6.164,42.697,13.193,72.667c5.828,9.023,15.726,14.411,26.477,14.411c6.058,0,11.958-1.743,17.064-5.041
	c7.067-4.564,11.933-11.607,13.703-19.831c1.769-8.224,0.23-16.645-4.334-23.71c-7.671-11.878-7.662-17.522-4.432-24.197
	c10.206,2.692,20.968,4.135,32.083,4.135c23.488,0,45.396-6.434,63.814-17.511c0.126,0.138,0.251,0.265,0.376,0.41
	c7.1,8.192,10.097,21.864,6.822,31.127c-5.788,16.372,2.824,34.4,19.196,40.188c3.392,1.2,6.923,1.808,10.498,1.808
	c13.319,0,25.25-8.44,29.691-21.001c0.414-1.17,0.809-2.374,1.173-3.577c1.2-3.964-1.041-8.151-5.005-9.352
	c-3.963-1.2-8.151,1.04-9.352,5.005c-0.298,0.983-0.62,1.966-0.958,2.922c-2.327,6.581-8.576,11.003-15.55,11.003
	c-1.866,0-3.715-0.319-5.498-0.95c-8.575-3.031-13.084-12.473-10.053-21.047c4.957-14.022,1.176-32.793-8.951-45.107
	c8.785-6.938,16.473-15.048,22.786-24.07c0.493,0.535,0.985,1.072,1.463,1.623c10.482,12.094,17.332,27.881,19.288,44.456
	c0.45,3.816,3.69,6.622,7.439,6.622c0.294,0,0.59-0.017,0.888-0.052c4.114-0.485,7.055-4.214,6.569-8.327
	c-2.305-19.529-10.419-38.181-22.848-52.522c-1.541-1.778-3.158-3.483-4.828-5.116c5.846-11.585,9.595-24.265,10.787-37.615
	c19.845-9.267,39.686-23.249,55.015-38.851c21.17-21.546,34.056-46.209,37.266-71.322
	C494.285,223.754,492.038,215.495,486.892,208.84z M166.167,348.305c-13.064-0.317-26.928-2.974-40.591-7.819
	c-24.701-8.757-46.149-23.684-57.373-39.93c-5.169-7.483-3.287-17.776,4.194-22.943c7.485-5.169,17.778-3.287,22.945,4.194
	c11.041,15.981,43.148,32.573,71.191,33.52c-1.001,5.807-1.507,11.713-1.507,17.697
	C165.028,338.208,165.422,343.308,166.167,348.305z M459.857,111.252c-9.561-16.574-22.543-31.84-38.66-45.183
	c-1.095-0.906-2.202-1.799-3.317-2.681c18.199-14.62,38.121-21.773,53.913-25.256C474.94,55.559,475.739,83.09,459.857,111.252z
	 M456.494,15.773c4.929,0.58,9.16,3.57,11.403,7.861c-18.345,4.128-41.602,12.748-62.547,30.658
	c-9.21-6.148-18.991-11.55-29.237-16.165C398.683,20.437,427.375,12.341,456.494,15.773z M109.889,15.773
	c29.12-3.432,57.811,4.664,80.381,22.354c-10.247,4.615-20.028,10.016-29.237,16.165c-20.945-17.91-44.202-26.53-62.547-30.658
	C100.73,19.343,104.961,16.354,109.889,15.773z M94.591,38.132c15.793,3.483,35.715,10.637,53.914,25.256
	c-1.116,0.882-2.223,1.774-3.318,2.681c-16.117,13.343-29.099,28.609-38.66,45.183C90.645,83.09,91.444,55.559,94.591,38.132z
	 M172.876,412.1h-0.006c-7.188,0-14.893-1.547-22.899-4.597C105.512,390.568,67.251,388.832,45,402.74
	c-1.696,1.061-3.705,1.397-5.657,0.947c-1.951-0.45-3.61-1.633-4.672-3.332c-1.061-1.698-1.397-3.707-0.947-5.658
	c0.45-1.951,1.633-3.61,3.332-4.671c26.267-16.418,69.369-15.154,118.251,3.467c11.167,4.254,20.875,4.702,30.028,1.307
	c3.051,4.199,6.406,8.191,10.03,11.952C188.079,410.34,180.682,412.1,172.876,412.1z M245.21,483.973
	c-0.927,4.307-3.476,7.996-7.176,10.386c-2.675,1.728-5.762,2.641-8.926,2.641c-5.637,0-10.825-2.822-13.877-7.548
	c-19.695-30.494-15.456-53.709-7.094-71.273c8.638,6.65,18.303,12.175,28.732,16.341c-4.603,10.893-4.072,21.331,6.072,37.037
	C245.331,475.257,246.137,479.666,245.21,483.973z M246.237,311.853c11.845,1.101,24.277,1.659,36.954,1.659
	c36.395,0,68.951-4.444,96.92-13.2c4.141,10.448,6.245,21.42,6.245,32.711c0,52.567-46.28,95.333-103.165,95.333
	s-103.165-42.766-103.165-95.333c0-8.013,1.064-15.865,3.157-23.484c0-0.001,0-0.002,0.001-0.003
	c0.854-3.109,1.881-6.18,3.079-9.206c7.632,2.379,15.673,4.457,24.121,6.219c0.516,0.108,1.031,0.16,1.539,0.16
	c3.477,0,6.596-2.432,7.334-5.97c0.846-4.055-1.755-8.027-5.811-8.873c-10.214-2.131-19.763-4.747-28.661-7.814
	c-0.131-0.05-0.264-0.092-0.396-0.134c-21.07-7.31-38.396-17.221-51.689-29.63c-20.182-18.841-30.414-43.116-30.414-72.151
	c0-81.871,81.153-148.477,180.905-148.477s180.905,66.606,180.905,148.477c0,4.949-0.308,9.8-0.905,14.501
	c-7.381-0.298-14.563,1.979-20.478,6.552c-6.654,5.146-10.906,12.577-11.973,20.921c-3.006,23.513-27.084,47.905-49.505,60.051
	c-27.7,9.519-60.679,14.35-98.045,14.35c-12.216,0-24.182-0.537-35.567-1.594c-4.115-0.38-7.778,2.65-8.162,6.774
	C239.08,307.816,242.113,311.469,246.237,311.853z M478.34,230.196c-5.928,46.379-47.486,79.564-77.265,95.249
	c-0.775-10.746-3.202-21.207-7.252-31.242c10.91-6.696,21.608-15.583,30.063-25.072c12.391-13.907,19.906-28.816,21.733-43.116
	c0.559-4.371,2.786-8.262,6.271-10.958c3.484-2.695,7.808-3.872,12.181-3.312c1.054,0.135,2.078,0.371,3.067,0.694
	c0.038,0.012,0.078,0.022,0.116,0.033c3.062,1.026,5.754,2.931,7.774,5.543C477.722,221.501,478.898,225.826,478.34,230.196z
	 M417.34,216.991c-7.783-5.746-27.825-15.813-38.446-18.633c-4.002-1.059-8.11,1.321-9.173,5.325
	c-1.063,4.003,1.321,8.11,5.325,9.173c8.623,2.289,26.973,11.469,33.387,16.204c1.34,0.989,2.901,1.466,4.448,1.466
	c2.299,0,4.569-1.054,6.04-3.046C421.38,224.146,420.672,219.451,417.34,216.991z M339.676,163.745c4.142,0,7.5-3.358,7.5-7.5
	c0-4.735,3.853-8.587,8.587-8.587c4.735,0,8.587,3.852,8.587,8.587c0,4.142,3.358,7.5,7.5,7.5s7.5-3.358,7.5-7.5
	c0-13.006-10.581-23.586-23.586-23.586s-23.586,10.581-23.586,23.586C332.176,160.387,335.534,163.745,339.676,163.745z
	 M376.46,181.166c0.543,4.107,4.317,6.998,8.418,6.453c8.846-1.169,29.308,0.327,37.042,2.26c0.611,0.153,1.222,0.226,1.825,0.226
	c3.36,0,6.418-2.275,7.27-5.683c1.005-4.019-1.438-8.09-5.457-9.095c-9.387-2.347-31.753-4.02-42.645-2.579
	C378.807,173.292,375.918,177.061,376.46,181.166z M181.505,187.619c4.108,0.542,7.876-2.346,8.418-6.453
	c0.542-4.107-2.347-7.875-6.453-8.418c-10.894-1.438-33.259,0.232-42.645,2.579c-4.018,1.004-6.462,5.077-5.457,9.095
	c0.852,3.408,3.91,5.683,7.27,5.683c0.602,0,1.214-0.073,1.825-0.226C152.197,187.946,172.662,186.449,181.505,187.619z
	 M281.914,214.58L281.914,214.58c0.435,0.021,0.867,0.031,1.299,0.031c6.879,0,13.357-2.587,18.361-7.362
	c5.244-5.003,8.251-12.027,8.251-19.273v-16.053c0-5.167-2.401-10.127-6.424-13.269c-5.824-4.547-12.812-6.951-20.21-6.951
	c-7.397,0-14.386,2.404-20.208,6.951c-4.023,3.141-6.424,8.101-6.424,13.269v15.513C256.559,201.988,267.696,213.91,281.914,214.58z
	 M271.558,171.925c0-0.585,0.245-1.125,0.655-1.445c3.162-2.469,6.958-3.774,10.978-3.774s7.816,1.305,10.978,3.773
	c0.411,0.321,0.656,0.861,0.656,1.446v16.053c0,3.212-1.28,6.201-3.605,8.42c-2.323,2.215-5.377,3.352-8.6,3.201
	c-6.1-0.288-11.062-5.742-11.062-12.16L271.558,171.925L271.558,171.925z"/>
<g>
</g>
<g>
</g>
<g>
</g>
<g>
</g>
<g>
</g>
<g>
</g>
<g>
</g>
<g>
</g>
<g>
</g>
<g>
</g>
<g>
</g>
<g>
</g>
<g>
</g>
<g>
</g>
<g>
</g>
</svg>
