<?xml version="1.0" encoding="iso-8859-1"?>
<!-- Generator: Adobe Illustrator 19.0.0, SVG Export Plug-In . SVG Version: 6.00 Build 0)  -->
<svg version="1.1" id="Capa_1" xmlns="http://www.w3.org/2000/svg" xmlns:xlink="http://www.w3.org/1999/xlink" x="0px" y="0px"
	 viewBox="0 0 512.001 512.001" style="enable-background:new 0 0 512.001 512.001;" xml:space="preserve">
<path style="fill:#F33A3A;" d="M504.475,249.687c0.026-0.018,0.041-0.029,0.041-0.029l-3.769-0.814
	c-11.334-2.873-47.191-14.212-92.756-51.043c-74.899-60.542-112.349-71.187-140.831-33.265c-0.648,0.863-1.273,1.744-1.875,2.641
	c-4.415,6.582-14.099,6.582-18.514,0c-0.602-0.897-1.226-1.778-1.875-2.641c-28.483-37.922-65.932-27.277-140.831,33.265
	c-45.343,36.651-81.072,48.06-92.589,51.001l-3.965,0.856c0,0,0.018,0.013,0.047,0.033c-0.007,0.001-0.018,0.003-0.018,0.003
	c0.007,0,0.016,0.001,0.023,0.001c1.703,1.182,48.296,31.669,77.787,68.679c51.027,64.036,94.218,51.577,170.663,47.537
	c76.445,4.04,119.636,16.499,170.663-47.537c29.483-37,76.059-67.48,77.785-68.677c0.017-0.001,0.037-0.001,0.055-0.002
	C504.517,249.695,504.501,249.692,504.475,249.687z"/>
<path style="fill:#E23333;" d="M504.517,249.659c0,0-71.681,15.999-101.805,41.824c-62.163,53.292-108.388,40.333-184.833,36.293
	c-59.486,3.144-98.836,11.379-137.411-15.293c1.67,1.943,3.302,3.907,4.883,5.891c51.027,64.036,94.218,51.577,170.663,47.537
	c76.445,4.04,119.636,16.499,170.663-47.537c29.483-37,76.059-67.48,77.785-68.677c0.018-0.001,0.038-0.001,0.055-0.002
	c0,0-0.016-0.003-0.041-0.007C504.502,249.669,504.517,249.659,504.517,249.659z"/>
<path style="fill:#FF4C4C;" d="M504.404,249.634l-3.655-0.789c-11.334-2.873-47.191-14.212-92.756-51.043
	c-74.899-60.542-112.349-71.187-140.831-33.265c-0.648,0.863-1.273,1.744-1.875,2.641c-4.415,6.582-14.099,6.582-18.514,0
	c-0.602-0.897-1.226-1.778-1.875-2.641c-28.483-37.922-65.932-27.277-140.831,33.265c-45.343,36.651-81.072,48.06-92.589,51.001
	l-3.852,0.832c0.648,0.114,76.165,13.338,173.211-2.726c18.977-3.141,42.43,5.506,57.351,12.432c0.057,0.026,0.113,0.052,0.17,0.078
	c11.172,5.137,24.144,5.137,35.316,0c0.057-0.026,0.113-0.052,0.17-0.078c14.921-6.927,38.374-15.573,57.351-12.432
	C428.238,262.972,503.754,249.749,504.404,249.634z"/>
<path d="M511.853,248.179c-0.538-2.672-2.489-4.803-5.047-5.627c-0.178-0.06-0.359-0.113-0.543-0.16
	c-0.057-0.014-0.11-0.037-0.167-0.049l-3.637-0.785c-34.896-8.885-70.959-34.861-85.847-46.47c-1.54-1.201-2.853-2.248-3.916-3.107
	c-53.856-43.532-86.623-59.947-113.126-56.663c-2.758,0.342-5.441,0.904-8.053,1.69c-11.318,3.404-21.303,11-30.344,23.036
	c-0.724,0.964-1.433,1.962-2.104,2.965c-0.946,1.411-2.312,1.622-3.042,1.622c-0.73,0-2.094-0.211-3.043-1.624
	c-0.667-0.994-1.365-1.977-2.076-2.925c-0.009-0.013-0.018-0.026-0.028-0.039c-11.084-14.756-23.587-22.836-38.225-24.702
	c-25.549-3.263-58.033,12.565-108.641,52.905c-3.233,2.576-3.764,7.285-1.188,10.518c2.577,3.232,7.286,3.764,10.518,1.188
	c46.513-37.074,76.557-52.423,97.418-49.761c10.559,1.346,19.504,7.334,28.147,18.842c0.562,0.75,1.116,1.53,1.645,2.317
	c3.249,4.844,8.535,7.858,14.31,8.216c0.385,0.024,0.772,0.036,1.161,0.036c0.001,0,0.001,0,0.001,0
	c1.167,0,2.318-0.108,3.441-0.319c0.749-0.14,1.486-0.326,2.206-0.554c0.36-0.114,0.717-0.24,1.069-0.375
	c3.518-1.358,6.591-3.775,8.759-7.005c0.525-0.785,1.078-1.563,1.641-2.313c8.675-11.55,17.658-17.543,28.269-18.859
	c21.729-2.694,52.191,13.291,101.873,53.45c1.471,1.189,2.929,2.343,4.38,3.482c0.379,0.297,0.757,0.592,1.134,0.886
	c1.297,1.009,2.586,2.001,3.865,2.97c0.155,0.118,0.312,0.24,0.468,0.357c1.413,1.067,2.813,2.104,4.205,3.123
	c0.358,0.262,0.713,0.52,1.07,0.779c1.183,0.86,2.358,1.703,3.525,2.529c0.235,0.166,0.472,0.337,0.706,0.502
	c1.357,0.955,2.7,1.885,4.033,2.795c0.325,0.222,0.648,0.439,0.972,0.659c1.106,0.749,2.203,1.484,3.292,2.202
	c0.281,0.185,0.563,0.374,0.843,0.558c1.297,0.85,2.58,1.679,3.851,2.487c0.284,0.181,0.565,0.356,0.848,0.534
	c1.054,0.665,2.098,1.315,3.133,1.952c0.301,0.185,0.604,0.373,0.904,0.556c1.236,0.754,2.46,1.49,3.669,2.204
	c0.229,0.135,0.453,0.264,0.68,0.398c1.023,0.6,2.035,1.186,3.037,1.758c0.308,0.176,0.616,0.352,0.922,0.525
	c1.173,0.664,2.336,1.314,3.48,1.941c0.15,0.082,0.296,0.16,0.445,0.241c1.02,0.556,2.027,1.096,3.023,1.623
	c0.3,0.159,0.599,0.317,0.897,0.473c1.107,0.58,2.205,1.15,3.281,1.695c0.046,0.023,0.091,0.045,0.137,0.068
	c1.043,0.527,2.066,1.034,3.078,1.529c0.29,0.142,0.578,0.282,0.866,0.421c0.921,0.446,1.83,0.881,2.724,1.3
	c0.126,0.059,0.255,0.122,0.381,0.18c0.995,0.465,1.969,0.909,2.93,1.343c0.111,0.05,0.229,0.106,0.34,0.156
	c-30.873,2.236-80.86,3.133-137.99-6.323c-20.505-3.391-44.886,5.211-61.724,13.028c-0.002,0.001-0.142,0.066-0.144,0.067
	c-9.236,4.247-19.828,4.246-29.031,0.015l-0.176-0.082c-16.838-7.817-41.217-16.423-61.724-13.028
	c-57.204,9.469-107.199,8.565-138.055,6.322c11.919-5.35,26.596-13.126,43.109-24.324c3.422-2.32,4.314-6.974,1.995-10.395
	c-2.321-3.421-6.975-4.316-10.396-1.994c-32.716,22.183-57.31,30.019-66.503,32.382l-3.834,0.828
	c-0.059,0.013-0.113,0.036-0.171,0.05c-0.18,0.046-0.358,0.098-0.531,0.156c-2.578,0.825-4.557,2.961-5.086,5.653
	c-0.515,2.625,0.394,5.286,2.359,7.027c0.374,0.342,0.785,0.645,1.222,0.905c0.051,0.034,0.103,0.07,0.161,0.108
	c11.299,7.589,50.144,34.835,75.613,66.796c22.137,27.781,43.763,43.163,70.122,49.873c12.261,3.121,25.057,4.173,38.663,4.173
	c13.041,0,26.827-0.966,41.597-2.001c8.353-0.585,16.986-1.19,26.134-1.678c9.149,0.487,17.782,1.092,26.135,1.678
	c58.176,4.076,100.208,7.021,145.463-46.073c2.681-3.146,2.305-7.87-0.841-10.551c-3.147-2.682-7.871-2.305-10.552,0.841
	c-40.354,47.343-75.237,44.899-133.024,40.85c-8.536-0.598-17.363-1.216-26.787-1.715c-0.263-0.014-0.526-0.014-0.789,0
	c-9.423,0.499-18.249,1.117-26.785,1.715c-59.434,4.166-95.304,6.677-137.63-46.441c-16.794-21.075-38.924-40.072-56.006-53.268
	c31.049,2.609,84.391,4.191,146.86-6.149c13.065-2.164,31.877,2.042,52.97,11.834l0.109,0.05c0.002,0.001,0.09,0.042,0.093,0.043
	c6.605,3.036,13.694,4.555,20.784,4.555s14.18-1.518,20.784-4.555c0.003-0.001,0.091-0.042,0.093-0.043
	c0.006-0.002,0.096-0.044,0.102-0.047c21.099-9.795,39.91-14.001,52.977-11.837c62.429,10.333,115.78,8.752,146.842,6.146
	c-11.065,8.545-24.152,19.457-36.607,31.829c-2.932,2.913-2.948,7.652-0.035,10.585c1.464,1.473,3.387,2.21,5.31,2.21
	c1.907,0,3.815-0.725,5.275-2.175c22.713-22.563,47.697-40.135,57.384-46.642c0.01-0.007,0.02-0.014,0.03-0.02
	c1.327-0.747,2.404-1.892,3.071-3.278C511.948,251.498,512.185,249.827,511.853,248.179z"/>
<g>
</g>
<g>
</g>
<g>
</g>
<g>
</g>
<g>
</g>
<g>
</g>
<g>
</g>
<g>
</g>
<g>
</g>
<g>
</g>
<g>
</g>
<g>
</g>
<g>
</g>
<g>
</g>
<g>
</g>
</svg>
