<?xml version="1.0" encoding="iso-8859-1"?>
<!-- Generator: Adobe Illustrator 19.0.0, SVG Export Plug-In . SVG Version: 6.00 Build 0)  -->
<svg version="1.1" id="Capa_1" xmlns="http://www.w3.org/2000/svg" xmlns:xlink="http://www.w3.org/1999/xlink" x="0px" y="0px"
	 viewBox="0 0 512 512" style="enable-background:new 0 0 512 512;" xml:space="preserve">
<path style="fill:#B857D0;" d="M300.986,512h-90V300h90V512z"/>
<path style="fill:#AB3CCC;" d="M300.986,512h-45V300h45V512z"/>
<path style="fill:#FFF5CB;" d="M256,330c-90.981,0-165-74.019-165-165S165.019,0,256,0s165,74.019,165,165S346.981,330,256,330z"/>
<path style="fill:#FF3200;" d="M176.188,98.171c-52.07,52.07-52.07,136.795,0,188.866c20.94,20.941,47.106,35.767,75.695,42.911
	c1.368,0.034,2.74,0.052,4.116,0.052c22.711,0,44.364-4.613,64.073-12.95l-60.229-16.028l-0.269-0.069
	c-23.478-5.784-44.977-17.932-62.174-35.129c-40.373-40.374-40.373-106.067,0-146.44c31.129-31.128,81.78-31.129,112.909,0
	c23.733,23.734,23.733,62.352,0,86.085c-8.632,8.631-20.107,13.385-32.313,13.385s-23.682-4.754-32.313-13.385
	c-6.338-6.338-9.829-14.766-9.829-23.729s3.491-17.391,9.829-23.729c9.298-9.295,24.424-9.296,33.723,0
	c3.036,3.037,4.709,7.074,4.709,11.368s-1.672,8.331-4.71,11.368c-1.861,1.862-4.338,2.888-6.972,2.888s-5.11-1.025-6.973-2.888
	l-21.214,21.213c7.529,7.529,17.539,11.675,28.187,11.675s20.658-4.146,28.186-11.674c8.703-8.703,13.496-20.273,13.496-32.582
	c0-12.308-4.793-23.878-13.496-32.581c-20.993-20.994-55.154-20.994-76.149,0c-12.004,12.004-18.616,27.965-18.616,44.941
	c0,16.978,6.611,32.938,18.615,44.942c14.297,14.298,33.307,22.172,53.526,22.172s39.229-7.874,53.525-22.172
	c35.43-35.43,35.431-93.08,0-128.511C288.697,55.345,219.014,55.345,176.188,98.171z"/>
<path style="fill:#FFDBA9;" d="M256,0v330c90.981,0,165-74.019,165-165S346.981,0,256,0z"/>
<g>
	<path style="fill:#C2001B;" d="M331.523,98.171c-20.872-20.872-48.124-31.567-75.537-32.094v30.011
		c19.729,0.522,39.301,8.272,54.324,23.296c23.733,23.734,23.733,62.352,0,86.085c-8.632,8.631-20.107,13.385-32.313,13.385
		c-7.825,0-15.344-1.963-22.012-5.639v32.405c7.045,2.13,14.444,3.234,22.012,3.234c20.219,0,39.229-7.874,53.525-22.172
		C366.953,191.252,366.954,133.602,331.523,98.171z"/>
	<path style="fill:#C2001B;" d="M300.621,201.961c8.703-8.703,13.496-20.273,13.496-32.582c0-12.308-4.793-23.878-13.496-32.581
		c-12.165-12.166-28.75-17.266-44.635-15.333v30.498c8.056-2.292,17.089-0.283,23.422,6.048c3.036,3.037,4.709,7.074,4.709,11.368
		s-1.672,8.331-4.71,11.368c-1.861,1.862-4.338,2.888-6.972,2.888s-5.11-1.025-6.973-2.888l-9.477,9.476v19.872
		c5.102,2.313,10.68,3.54,16.449,3.54C283.083,213.635,293.094,209.488,300.621,201.961z"/>
	<path style="fill:#C2001B;" d="M259.575,300.953c-1.203-0.296-2.397-0.62-3.589-0.95V330c0.005,0,0.009,0,0.014,0
		c22.711,0,44.364-4.613,64.073-12.95l-60.229-16.028L259.575,300.953z"/>
</g>
<path style="fill:#FFDB2D;" d="M255.986,204c-21.505,0-39-17.495-39-39s17.495-39,39-39s39,17.495,39,39S277.491,204,255.986,204z"
	/>
<path style="fill:#FF9A00;" d="M255.986,126v78c21.505,0,39-17.495,39-39S277.491,126,255.986,126z"/>
<path style="fill:#FF3200;" d="M256,330c-90.981,0-165-74.019-165-165S165.019,0,256,0s165,74.019,165,165S346.981,330,256,330z
	 M256,30c-74.439,0-135,60.561-135,135s60.561,135,135,135s135-60.561,135-135S330.439,30,256,30z"/>
<path style="fill:#C2001B;" d="M256,0v30c74.439,0,135,60.561,135,135s-60.561,135-135,135v30c90.981,0,165-74.019,165-165
	S346.981,0,256,0z"/>
<g>
</g>
<g>
</g>
<g>
</g>
<g>
</g>
<g>
</g>
<g>
</g>
<g>
</g>
<g>
</g>
<g>
</g>
<g>
</g>
<g>
</g>
<g>
</g>
<g>
</g>
<g>
</g>
<g>
</g>
</svg>
