<svg height="512" viewBox="0 0 58 58" width="512" xmlns="http://www.w3.org/2000/svg"><g id="Page-1" fill="none" fill-rule="evenodd"><g id="039---Love-Mail" fill-rule="nonzero"><path id="Shape" d="m1 57h21.409c1.0668016-.0000395 2.053332-.5665995 2.591-1.488l6-10.512-22-3-8.862 13.5c-.17827744.3087789-.17866242.6891228-.00101043.998262s.5064642.5003044.86301043.501738z" fill="#e64c3c"/><path id="Shape" d="m58 25v19c0 .5522847-.4477153 1-1 1h-35v-29h27c4.200856.0006267 7.8435748 2.9048444 8.78 7 .1450139.6568201.2187736 1.3273633.22 2z" fill="#e64c3c"/><path id="Shape" d="m7 44v-19c0-4.9705627 4.0294373-9 9-9h6c4.9705627 0 9 4.0294373 9 9v20h-23c-.55228475 0-1-.4477153-1-1z" fill="#35495e"/><path id="Shape" d="m46 45v11c-.0032948 1.1032019-.8967981 1.9967052-2 2h-6c-1.1032019-.0032948-1.9967052-.8967981-2-2v-11z" fill="#805333"/><path id="Shape" d="m46 47v9c-.0032948 1.1032019-.8967981 1.9967052-2 2h-6c-1.1032019-.0032948-1.9967052-.8967981-2-2v-9z" fill="#a56a43"/><path id="Shape" d="m37 33.54v-32.54c0-.55228475.4477153-1 1-1h2c.5522847 0 1 .44771525 1 1v32.54z" fill="#3f5c6c"/><path id="Shape" d="m43 37c.0044741 1.8163968-1.212552 3.4089611-2.9663604 3.8816911s-3.6063517-.2924476-4.51536-1.8650319c-.9090082-1.5725843-.6474392-3.5597923.6375443-4.8435893 1.2849834-1.2837971 3.2724321-1.5435304 4.8441761-.6330699 1.2363362.713798 1.9985357 2.0324032 2 3.46z" fill="#bdc3c7"/><path id="Shape" d="m41 1h10c1.1045695 0 2 .8954305 2 2v6c0 1.1045695-.8954305 2-2 2h-10z" fill="#e64c3c"/><path id="Shape" d="m58 25h-13c-.5522847 0-1-.4477153-1-1s.4477153-1 1-1h12.78c.1450139.6568201.2187736 1.3273633.22 2z" fill="#c03a2b"/><path id="Shape" d="m27 29.57c0 3.05-2.56 5.8-7.61 9.31-.2354061.1599303-.5445939.1599303-.78 0-2.2896699-1.4599726-4.3461182-3.2568365-6.1-5.33-.9327515-1.1213503-1.464207-2.5221403-1.51-3.98 0-2.47 1.63-4.57 4-4.57 1.6951655.0679325 3.2229461 1.0418926 4 2.55.7770539-1.5081074 2.3048345-2.4820675 4-2.55.2653117.0008475.5299046.0276417.79.08 1.9975016.5487578 3.3370013 2.4223882 3.21 4.49z" fill="#c03a2b"/><path id="Shape" d="m24 26.57c0 3.05-2.56 5.8-7.61 9.31-.2354061.1599303-.5445939.1599303-.78 0-1.17-.81-2.2-1.58-3.1-2.33-.9327515-1.1213503-1.464207-2.5221403-1.51-3.98 0-2.47 1.63-4.57 4-4.57 1.6951655.0679325 3.2229461 1.0418926 4 2.55.7770539-1.5081074 2.3048345-2.4820675 4-2.55.2653117.0008475.5299046.0276417.79.08.1417453.4838852.2124832.9857873.21 1.49z" fill="#e64c3c"/></g></g></svg>