<?xml version="1.0" encoding="iso-8859-1"?>
<!-- Generator: Adobe Illustrator 19.0.0, SVG Export Plug-In . SVG Version: 6.00 Build 0)  -->
<svg version="1.1" id="Capa_1" xmlns="http://www.w3.org/2000/svg" xmlns:xlink="http://www.w3.org/1999/xlink" x="0px" y="0px"
	 viewBox="0 0 511.999 511.999" style="enable-background:new 0 0 511.999 511.999;" xml:space="preserve">
<path style="fill:#FEB756;" d="M255.987,37.011c-77.316,0-139.993,28.652-139.993,63.997s62.677,63.997,139.993,63.997
	s139.993-28.652,139.993-63.997S333.302,37.011,255.987,37.011z M255.987,129.177c-55.226,0-99.995-12.535-99.995-27.999
	S200.76,73.18,255.987,73.18s99.995,12.535,99.995,27.999S311.213,129.177,255.987,129.177z"/>
<g>
	<path style="fill:#8CCEEA;" d="M415.142,232.1c-21.805,0-59.883,13.78-64.663,53.701v116.415h50.081
		c35.559,0,64.471-28.379,65.372-63.721h0.043v-8.725c13.816-5.996,18.666-21.815,18.666-33.031v-3.018l-18.666,0.548l0,0
		c27.129-1.113,36.025-26.363,36.025-43.14c0-17.157,0-19.03,0-19.03H415.142z"/>
	<path style="fill:#8CCEEA;" d="M9.999,232.1c0,0,0,1.873,0,19.03c0,16.776,8.898,42.027,36.025,43.14l0,0l-18.666-0.548v3.018
		c0,11.216,4.85,27.035,18.666,33.031v8.725h0.043c0.901,35.342,29.812,63.721,65.372,63.721h50.081V285.801
		C156.74,245.88,118.663,232.1,96.858,232.1L9.999,232.1L9.999,232.1z"/>
</g>
<path style="fill:#F25353;" d="M306.477,270.121c-19.887,0-37.821,8.674-50.49,22.573c-12.669-13.899-30.603-22.573-50.49-22.573
	c-38.386,0-69.503,32.306-69.503,72.158c0,67.177,119.994,132.709,119.994,132.709S375.98,409.456,375.98,342.279
	C375.98,302.427,344.863,270.121,306.477,270.121z"/>
<path d="M502.001,222.1h-86.858c-14.789,0-31.314,5.055-44.206,13.521c-13.043,8.567-22.211,20.224-27.028,34.2
	c-11.162-6.184-23.906-9.701-37.432-9.701c-18.432,0-36.35,6.722-50.49,18.707c-14.141-11.985-32.059-18.707-50.49-18.707
	c-13.517,0-26.252,3.514-37.409,9.689c-4.818-13.971-13.983-25.624-27.023-34.188c-12.891-8.467-29.416-13.521-44.206-13.521H9.999
	C4.478,222.1,0,226.577,0,232.1v19.029c0,12.107,3.63,24.377,9.957,33.662c2.2,3.228,4.684,6.068,7.423,8.516
	c-0.006,0.138-0.021,0.274-0.021,0.414v3.018c0,15.177,6.38,30.469,18.741,38.885c-0.045,0.387-0.075,0.778-0.075,1.177
	c0,41.584,33.83,75.414,75.414,75.414h45.58c0.538,0,1.063-0.054,1.578-0.136c8.642,9.684,18.983,19.51,31.025,29.456
	c30.385,25.101,60.313,41.542,61.572,42.229c1.493,0.815,3.144,1.224,4.793,1.224s3.3-0.408,4.793-1.224
	c1.26-0.688,31.186-17.13,61.572-42.229c12.043-9.947,22.386-19.775,31.028-29.459c0.523,0.084,1.055,0.14,1.602,0.14h45.58
	c41.584,0,75.414-33.83,75.414-75.414c0-0.363-0.022-0.721-0.06-1.075c3.921-2.659,7.359-6.11,10.235-10.331
	c5.396-7.916,8.49-18.361,8.49-28.656v-3.018c0-0.14-0.015-0.276-0.021-0.414c2.74-2.447,5.223-5.288,7.423-8.516
	c6.328-9.286,9.957-21.555,9.957-33.662V232.1C512,226.577,507.523,222.1,502.001,222.1z M111.439,392.215
	c-28.747,0-52.446-22.006-55.151-50.055c0.723,0.034,1.452,0.058,2.194,0.058h54.925c5.522,0,9.999-4.478,9.999-9.999
	c0-5.522-4.478-9.999-9.999-9.999H58.482c-7.13,0-12.398-2.646-16.107-8.088c-2.029-2.978-3.519-6.749-4.328-10.736
	c3.139,0.603,6.418,0.927,9.84,0.927h65.519c5.522,0,9.999-4.478,9.999-9.999c0-5.522-4.478-9.999-9.999-9.999H47.888
	c-27.572,0-27.89-31.838-27.89-33.193v-9.03h76.859c18.215,0,47.939,11.118,54.013,40.57
	c-15.303,14.982-24.878,36.155-24.878,59.609c0,16.042,5.754,32.732,17.147,49.936H111.439z M309.846,425.924
	c-22.018,18.221-44.329,31.952-53.859,37.543c-9.533-5.593-31.844-19.324-53.859-37.542c-25.61-21.192-56.135-52.905-56.135-83.646
	c0-34.274,26.693-62.159,59.504-62.159c16.443,0,31.75,6.858,43.101,19.31c1.895,2.079,4.578,3.264,7.391,3.264
	c2.813,0,5.496-1.185,7.391-3.264c11.35-12.451,26.657-19.31,43.101-19.31c32.811,0,59.504,27.885,59.504,62.159
	C365.981,373.018,335.455,404.733,309.846,425.924z M453.518,322.219h-54.925c-5.522,0-9.999,4.478-9.999,9.999
	c0,5.522,4.478,9.999,9.999,9.999h54.925c0.74,0,1.469-0.025,2.194-0.058c-2.705,28.051-26.404,50.055-55.151,50.055h-31.729
	c11.394-17.205,17.148-33.894,17.148-49.936c0-23.442-9.565-44.605-24.855-59.587c6.063-29.468,35.797-40.592,54.017-40.592h76.859
	v9.03c0,1.355-0.317,33.193-27.889,33.193h-65.519c-5.522,0-9.999,4.478-9.999,9.999c0,5.522,4.478,9.999,9.999,9.999h65.519
	c3.399,0,6.655-0.319,9.773-0.913C472.351,310.969,467.69,322.219,453.518,322.219z"/>
<path d="M331.862,324.418c2.89-4.706,1.418-10.863-3.288-13.754c-6.905-4.241-14.824-6.483-22.901-6.483
	c-12.312,0-24.207,5.304-32.635,14.55c-3.721,4.082-3.428,10.405,0.654,14.126c1.917,1.748,4.329,2.609,6.733,2.609
	c2.715,0,5.421-1.1,7.394-3.264c4.716-5.174,11.057-8.023,17.854-8.023c4.38,0,8.68,1.219,12.435,3.525
	C322.811,330.595,328.97,329.126,331.862,324.418z"/>
<path d="M340.424,340.165c-5.522,0-9.999,4.478-9.999,9.999v0.095c0,5.522,4.478,9.952,9.999,9.952
	c5.522,0,9.999-4.525,9.999-10.047C350.424,344.642,345.947,340.165,340.424,340.165z"/>
<path d="M255.987,47.011h0.472c0.01,0,0.02,0,0.03,0c5.509,0,9.981-4.458,9.998-9.97c0.016-5.523-4.448-10.012-9.97-10.028h-0.53
	c-5.522,0-9.999,4.477-9.999,9.999S250.465,47.011,255.987,47.011z"/>
<path d="M145.992,101.179c0,29.995,69.141,37.998,109.994,37.998s109.994-8.003,109.994-37.998s-69.141-37.998-109.994-37.998
	S145.992,71.183,145.992,101.179z M345.702,101.179c-1.665,2.049-8.431,6.917-25.65,11.211c-17.55,4.377-40.302,6.788-64.065,6.788
	s-46.516-2.411-64.065-6.788c-17.22-4.295-23.985-9.163-25.65-11.211c1.665-2.049,8.431-6.917,25.65-11.211
	c17.55-4.377,40.302-6.788,64.065-6.788s46.516,2.411,64.065,6.788C337.271,94.262,344.037,99.13,345.702,101.179z"/>
<path d="M152.84,155.354c27.718,12.671,64.35,19.649,103.147,19.649s75.43-6.979,103.147-19.649
	c30.208-13.81,46.846-33.11,46.846-54.347c0-17.759-11.463-34.066-33.149-47.159c-19.346-11.678-45.459-20.012-75.517-24.099
	c-5.475-0.746-10.511,3.088-11.256,8.562c-0.744,5.472,3.089,10.511,8.562,11.255c52.938,7.199,91.362,28.832,91.362,51.441
	c0,12.764-12.815,25.944-35.16,36.158c-25.165,11.503-58.844,17.839-94.833,17.839s-69.668-6.335-94.833-17.839
	c-22.345-10.215-35.16-23.395-35.16-36.158c0-21.392,35.904-42.654,85.372-50.555c5.454-0.872,9.169-5.999,8.298-11.452
	s-6-9.163-11.451-8.297c-62.095,9.918-102.218,37.515-102.218,70.304C105.994,122.244,122.632,141.545,152.84,155.354z"/>
<g>
</g>
<g>
</g>
<g>
</g>
<g>
</g>
<g>
</g>
<g>
</g>
<g>
</g>
<g>
</g>
<g>
</g>
<g>
</g>
<g>
</g>
<g>
</g>
<g>
</g>
<g>
</g>
<g>
</g>
</svg>
