<svg height="382pt" viewBox="0 -8 382.54586 382" width="382pt" xmlns="http://www.w3.org/2000/svg"><path d="m307.199219 153.871094c0 84.832031-68.769531 153.601562-153.597657 153.601562-84.832031 0-153.601562-68.769531-153.601562-153.601562 0-84.828125 68.769531-153.597656 153.601562-153.597656 84.828126 0 153.597657 68.769531 153.597657 153.597656zm0 0" fill="#ffe8dc"/><path d="m362.285156 126.351562c23.289063-34.316406 15.613282-80.15625-17.144531-102.386718-32.757813-22.230469-78.191406-12.429688-101.480469 21.886718-11.78125 17.359376-6.054687 45.390626-6.054687 45.390626l84.730469 57.503906c.003906 0 28.167968-5.035156 39.949218-22.394532zm0 0" fill="#fff"/><path d="m322.339844 155.570312c-1.359375 0-2.691406-.40625-3.832032-1.175781l-84.734374-57.503906c-1.472657-1-2.5-2.535156-2.851563-4.28125-.261719-1.261719-6.152344-31.078125 7.089844-50.59375 25.359375-37.378906 75.140625-48 110.960937-23.703125 35.820313 24.3125 44.328125 74.496094 18.960938 111.871094-13.246094 19.519531-43.128906 25.050781-44.394532 25.277344-.398437.070312-.796874.109374-1.199218.109374zm-78.5-68.347656 79.898437 54.222656c6.753907-1.648437 24.8125-7.023437 32.902344-18.925781 21.132813-31.148437 14.253906-72.824219-15.335937-92.90625-29.59375-20.078125-70.863282-11.074219-92 20.066407-7.457032 10.996093-6.722657 28.871093-5.464844 37.542968zm118.449218 39.128906h.066407zm0 0" fill="#4c241d"/><path d="m263.101562 26.039062c-7.375 5.234376-14.023437 11.828126-19.441406 19.808594l118.625 80.503906c5.417969-7.980468 9.085938-16.597656 11.226563-25.382812zm0 0" fill="#ffce56"/><path d="m362.289062 133.179688c-1.363281 0-2.695312-.402344-3.835937-1.175782l-118.625-80.503906c-3.121094-2.117188-3.933594-6.363281-1.8125-9.484375 5.671875-8.363281 12.777344-15.609375 21.132813-21.542969 2.328124-1.648437 5.433593-1.675781 7.785156-.082031l110.414062 74.929687c2.359375 1.597657 3.472656 4.496094 2.800782 7.265626-2.421876 9.933593-6.527344 19.21875-12.207032 27.597656-1.019531 1.5-2.585937 2.53125-4.367187 2.875-.429688.078125-.859375.121094-1.285157.121094zm-108.875-88.960938 106.78125 72.464844c2.21875-4.070313 4.039063-8.355469 5.433594-12.816406l-102.308594-69.429688c-3.632812 2.953125-6.945312 6.21875-9.90625 9.78125zm0 0" fill="#4c241d"/><path d="m76.707031 365.613281c-2.140625 0-4.246093-1.003906-5.578125-2.882812-2.179687-3.078125-1.453125-7.339844 1.625-9.515625 8.324219-5.894532 17.621094-9.855469 27.648438-11.777344 15.035156-2.875 28.046875-11.433594 36.648437-24.101562l31.078125-45.808594c2.121094-3.117188 6.367188-3.925782 9.484375-1.8125 3.121094 2.113281 3.933594 6.363281 1.8125 9.480468l-31.078125 45.808594c-10.648437 15.683594-26.761718 26.28125-45.375 29.84375-8.09375 1.550782-15.609375 4.753906-22.324218 9.507813-1.203126.851562-2.578126 1.257812-3.941407 1.257812zm0 0" fill="#4c241d"/><path d="m322.339844 148.746094-84.734375-57.503906-20.328125 35.707031 79.386718 53.871093zm0 0" fill="#fc8c29"/><path d="m296.65625 187.648438c-1.320312 0-2.65625-.382813-3.828125-1.175782l-79.378906-53.871094c-2.949219-2-3.863281-5.933593-2.101563-9.027343l20.328125-35.707031c.941407-1.65625 2.53125-2.839844 4.386719-3.273438 1.859375-.433594 3.800781-.066406 5.378906 1l84.730469 57.5c1.574219 1.070312 2.632813 2.75 2.921875 4.628906.277344 1.886719-.234375 3.800782-1.425781 5.289063l-25.683594 32.078125c-1.339844 1.675781-3.316406 2.558594-5.328125 2.558594zm-70.324219-62.804688 68.941407 46.789062 17.121093-21.390624-72.507812-49.203126zm0 0" fill="#4c241d"/><path d="m217.277344 126.949219-72.144532 126.730469c-8.996093 15.808593-4.332031 35.875 10.71875 46.089843l2.902344 1.96875c15.046875 10.210938 35.421875 7.136719 46.785156-7.0625l91.125-113.855469zm0 0" fill="#bd53b5"/><path d="m178.21875 314.511719c-8.082031 0-16.21875-2.316407-23.296875-7.125l-2.898437-1.96875c-17.878907-12.128907-23.507813-36.339844-12.824219-55.113281l72.148437-126.730469c.941406-1.660157 2.53125-2.839844 4.386719-3.273438 1.859375-.429687 3.804687-.070312 5.378906 1l79.378907 53.871094c1.574218 1.070313 2.632812 2.75 2.921874 4.628906.277344 1.886719-.234374 3.800781-1.429687 5.289063l-91.117187 113.851562c-8.148438 10.183594-20.339844 15.570313-32.648438 15.570313zm41.34375-177.765625-68.496094 120.3125c-7.1875 12.625-3.398437 28.90625 8.621094 37.0625l2.894531 1.964844c12.023438 8.164062 28.546875 5.664062 37.632813-5.675782l86.5-108.085937zm0 0" fill="#4c241d"/></svg>