<?xml version="1.0" encoding="iso-8859-1"?>
<!-- Generator: Adobe Illustrator 19.0.0, SVG Export Plug-In . SVG Version: 6.00 Build 0)  -->
<svg version="1.1" id="Capa_1" xmlns="http://www.w3.org/2000/svg" xmlns:xlink="http://www.w3.org/1999/xlink" x="0px" y="0px"
	 viewBox="0 0 512 512" style="enable-background:new 0 0 512 512;" xml:space="preserve">
<g transform="translate(-1)">
	<path style="fill:#C03A2B;" d="M486.528,61.793L442.39,220.69l44.138,114.759v158.897c-0.029,9.739-7.917,17.626-17.655,17.655
		H36.321c-9.71,0-8.828-7.945-8.828-17.655V335.448L71.631,220.69L27.493,61.793V17.655C27.522,7.917,35.41,0.029,45.148,0h423.724
		c9.739,0.029,17.626,7.917,17.655,17.655V61.793z"/>
	<polygon style="fill:#802F34;" points="486.528,335.448 442.39,220.69 71.631,220.69 27.493,335.448 	"/>
	<path style="fill:#E6E7E8;" d="M68.321,305.382l27.463-61.793c1.417-3.189,4.579-5.244,8.068-5.244h306.317
		c3.489,0,6.652,2.055,8.068,5.244l27.463,61.793c1.213,2.731,0.963,5.89-0.666,8.395c-1.629,2.505-4.414,4.017-7.402,4.016H76.389
		c-2.988,0-5.774-1.511-7.402-4.016C67.358,311.271,67.108,308.112,68.321,305.382z"/>
	<g>
		<path style="fill:#E64C3C;" d="M27.493,335.448h459.034v158.897c0,9.751-7.904,17.655-17.655,17.655H36.321
			c-4.875,0-8.828-3.952-8.828-8.828V335.448z"/>
		<path style="fill:#E64C3C;" d="M327.631,61.793h158.897V17.655C486.499,7.917,478.611,0.029,468.873,0H45.148
			C35.41,0.029,27.522,7.917,27.493,17.655v44.138H327.631z"/>
	</g>
	<path style="fill:#F0C419;" d="M334.517,291.31c-8.257-36.158-40.418-61.803-77.506-61.803s-69.25,25.645-77.506,61.803h-35.928
		c8.734-55.885,56.871-97.083,113.434-97.083s104.7,41.197,113.434,97.083H334.517z"/>
	<path style="fill:#BDC3C7;" d="M407.079,282.483H106.941c-4.875,0-8.828,3.952-8.828,8.828s3.952,8.828,8.828,8.828h300.138
		c4.875,0,8.828-3.952,8.828-8.828S411.955,282.483,407.079,282.483z"/>
	<polyline style="fill:#2FA8CC;" points="212.873,132.414 239.355,105.931 274.666,105.931 309.976,141.241 257.01,194.207 
		212.873,150.069 204.045,141.241 212.873,132.414 	"/>
	<path style="fill:#67B9CC;" d="M265.838,141.241c0,4.875-3.952,8.828-8.828,8.828h-44.138l-8.828-8.828l8.828-8.828h44.138
		C261.886,132.414,265.838,136.366,265.838,141.241z"/>
</g>
<g>
</g>
<g>
</g>
<g>
</g>
<g>
</g>
<g>
</g>
<g>
</g>
<g>
</g>
<g>
</g>
<g>
</g>
<g>
</g>
<g>
</g>
<g>
</g>
<g>
</g>
<g>
</g>
<g>
</g>
</svg>
