<?xml version="1.0" encoding="iso-8859-1"?>
<!-- Generator: Adobe Illustrator 19.0.0, SVG Export Plug-In . SVG Version: 6.00 Build 0)  -->
<svg version="1.1" id="Capa_1" xmlns="http://www.w3.org/2000/svg" xmlns:xlink="http://www.w3.org/1999/xlink" x="0px" y="0px"
	 viewBox="0 0 464 464" style="enable-background:new 0 0 464 464;" xml:space="preserve">
<path style="fill:#763A02;" d="M224,328h16v136h-16V328z"/>
<g>
	<path style="fill:#FFA900;" d="M208,24l24-24l24,24v288l-24,24l-24-24V24z"/>
	<path style="fill:#FFA900;" d="M64,168l24,24h288l24-24l-24-24H88L64,168z"/>
	<path style="fill:#FFA900;" d="M352,288v-32L144,48h-32v32l208,208H352z"/>
	<path style="fill:#FFA900;" d="M320,48h32v32L144,288h-32v-32L320,48z"/>
</g>
<g>
	<path style="fill:#FF8800;" d="M154.72,44.144l12.992-31.352l31.352,12.984l110.216,266.08l-12.992,31.352l-31.352-12.984
		L154.72,44.144z"/>
	<path style="fill:#FF8800;" d="M76.792,232.288l31.352,12.992l266.08-110.216l12.984-31.352L355.856,90.72L89.776,200.936
		L76.792,232.288z"/>
	<path style="fill:#FF8800;" d="M388.784,232.944l-12.24-29.568L104.776,90.808l-29.56,12.248l12.24,29.568l271.768,112.568
		L388.784,232.944z"/>
	<path style="fill:#FF8800;" d="M267.376,23.456l29.568-12.24l12.248,29.56L196.624,312.544l-29.568,12.24l-12.248-29.56
		L267.376,23.456z"/>
</g>
<path style="fill:#763A02;" d="M232,72L232,72c53.019,0,96,42.981,96,96l0,0c0,53.019-42.981,96-96,96l0,0
	c-53.019,0-96-42.981-96-96l0,0C136,114.981,178.981,72,232,72z"/>
<path style="fill:#33BC00;" d="M152,368H48v8c0.053,48.579,39.421,87.947,88,88h104v-8C239.947,407.421,200.579,368.053,152,368z"/>
<path style="fill:#008100;" d="M312,368c-48.579,0.053-87.947,39.421-88,88v8h104c48.579-0.053,87.947-39.421,88-88v-8H312z"/>
<path style="fill:#804300;" d="M310.856,113.328c-8.7,72.045-69.673,126.344-142.24,126.672
	c39.721,35.052,100.336,31.267,135.388-8.454c29.225-33.117,32.057-81.91,6.86-118.186L310.856,113.328z"/>
<g>
</g>
<g>
</g>
<g>
</g>
<g>
</g>
<g>
</g>
<g>
</g>
<g>
</g>
<g>
</g>
<g>
</g>
<g>
</g>
<g>
</g>
<g>
</g>
<g>
</g>
<g>
</g>
<g>
</g>
</svg>
