<svg height="512pt" viewBox="0 0 512 512" width="512pt" xmlns="http://www.w3.org/2000/svg"><path d="m423.722656 326.003906c54.113282 19.507813 88.277344 48.109375 88.277344 80.066406 0 58.527344-114.582031 105.929688-256 105.929688s-256-47.402344-256-105.929688c0-31.957031 34.164062-60.558593 88.277344-80.066406zm0 0" fill="#2c3e50"/><path d="m412.160156 326.003906c50.378906 17.652344 82.183594 43.546875 82.183594 72.464844 0 52.972656-106.679688 95.875-238.34375 95.875s-238.34375-42.902344-238.34375-95.875c0-28.917969 31.777344-54.8125 82.183594-72.464844zm0 0" fill="#35495e"/><path d="m423.722656 61.792969v238.34375c0 32.046875-66.027344 58.351562-150.597656 61.441406-5.648438.265625-11.296875.351563-17.125.351563-2.914062 0-5.738281 0-8.652344-.085938-88.539062-1.679688-159.070312-28.601562-159.070312-61.707031v-238.34375c0-1.058594.085937-2.117188.175781-3.179688 4.5-32.660156 77.859375-58.613281 167.546875-58.613281s163.046875 25.953125 167.546875 58.613281c.089844 1.0625.175781 2.121094.175781 3.179688zm0 0" fill="#35495e"/><path d="m423.722656 61.792969v238.34375c0 32.046875-66.027344 58.351562-150.597656 61.441406-5.648438.265625-11.296875.351563-17.125.351563-2.914062 0-5.738281 0-8.652344-.085938-88.539062-1.679688-159.070312-28.601562-159.070312-61.707031v-238.34375c0-1.058594.085937-2.117188.175781-3.179688 4.5-32.660156 77.859375-58.613281 167.546875-58.613281s163.046875 25.953125 167.546875 58.613281c.089844 1.0625.175781 2.121094.175781 3.179688zm0 0" fill="#2c3e50"/><path d="m406.070312 88.894531v318.320313c-25.070312 18.453125-74.59375 31.691406-132.945312 33.8125-5.648438.265625-11.296875.351562-17.125.351562-2.914062 0-5.738281 0-8.652344-.085937-61.96875-1.148438-115.109375-14.742188-141.417968-34.078125v-318.320313c0-1.5.089843-3.003906.179687-4.503906 3.96875-47.050781 69.648437-84.390625 149.890625-84.390625s145.921875 37.339844 149.890625 84.390625c.089844 1.5.179687 3.003906.179687 4.503906zm0 0" fill="#35495e"/><path d="m423.722656 61.792969c0 34.164062-75.121094 61.792969-167.722656 61.792969s-167.722656-27.628907-167.722656-61.792969c0-1.058594.085937-2.117188.175781-3.179688 4.5-32.660156 77.859375-58.613281 167.546875-58.613281s163.046875 25.953125 167.546875 58.613281c.089844 1.0625.175781 2.121094.175781 3.179688zm0 0" fill="#3f5c6c"/><path d="m423.722656 300.136719v79.449219c-1.101562 11.511718-7.671875 21.792968-17.652344 27.628906v-79.445313c9.980469-5.839843 16.550782-16.121093 17.652344-27.632812zm0 0" fill="#c03a2b"/><path d="m105.929688 327.769531v79.445313c-9.980469-5.835938-16.550782-16.117188-17.652344-27.628906v-79.449219c1.101562 11.511719 7.671875 21.792969 17.652344 27.632812zm0 0" fill="#c03a2b"/><path d="m406.070312 327.769531v79.445313c-25.070312 18.453125-74.59375 31.691406-132.945312 33.8125-5.648438.265625-11.296875.351562-17.125.351562-2.914062 0-5.738281 0-8.652344-.085937-61.96875-1.148438-115.109375-14.742188-141.417968-34.078125v-79.445313c26.308593 19.332031 79.449218 32.925781 141.417968 34.074219 2.914063.085938 5.738282.085938 8.652344.085938 5.828125 0 11.476562-.085938 17.125-.351563 58.351562-2.117187 107.875-15.359375 132.945312-33.808594zm0 0" fill="#e64c3c"/><path d="m141.242188 229.515625c-4.875 0-8.828126-3.949219-8.828126-8.824219v-70.621094c0-4.875 3.953126-8.828124 8.828126-8.828124s8.828124 3.953124 8.828124 8.828124v70.621094c0 4.875-3.953124 8.824219-8.828124 8.824219zm0 0" fill="#3f5c6c"/><path d="m141.242188 282.484375c-4.875 0-8.828126-3.953125-8.828126-8.828125v-17.65625c0-4.875 3.953126-8.828125 8.828126-8.828125s8.828124 3.953125 8.828124 8.828125v17.65625c0 4.875-3.953124 8.828125-8.828124 8.828125zm0 0" fill="#3f5c6c"/><path d="m254.289062 30.820312c-2.355468-14.433593-35.472656-21.046874-73.96875-14.765624-38.496093 6.277343-67.792968 23.070312-65.4375 37.507812 2.355469 14.433594 35.46875 21.046875 73.964844 14.765625 38.496094-6.277344 67.792969-23.070313 65.441406-37.507813zm0 0" fill="#547580"/><path d="m326.621094 472.277344c0-7.316406-31.617188-13.242188-70.621094-13.242188s-70.621094 5.925782-70.621094 13.242188c0 7.3125 31.617188 13.238281 70.621094 13.238281s70.621094-5.925781 70.621094-13.238281zm0 0" fill="#3f5c6c"/></svg>